<svg version="1.1" id="Layer_1" xmlns="http://www.w3.org/2000/svg" xmlns:xlink="http://www.w3.org/1999/xlink" x="0px" y="0px"
	 width="100%" viewBox="0 0 1360 768" enable-background="new 0 0 1360 768" xml:space="preserve">
<path fill="#FFFFFF" opacity="1.000000" stroke="none" 
	d="
M973.000000,769.000000 
	C648.704651,769.000000 324.909271,769.000000 1.056951,769.000000 
	C1.056951,513.067993 1.056951,257.135956 1.056951,1.101972 
	C454.212189,1.101972 907.424377,1.101972 1360.818359,1.101972 
	C1360.818359,256.999908 1360.818359,512.999939 1360.818359,769.000000 
	C1231.802368,769.000000 1102.651123,769.000000 973.000000,769.000000 
M584.914490,147.545746 
	C581.668884,147.584839 578.423340,147.623947 574.438416,147.264801 
	C564.563843,147.385910 554.689209,147.507034 543.904541,147.586487 
	C525.003906,147.586487 506.103271,147.586487 486.458435,147.586487 
	C486.458435,304.994507 486.458435,461.460541 486.458435,617.449280 
	C588.591370,617.449280 689.829956,617.449280 790.981079,617.449280 
	C790.981079,460.342041 790.981079,303.979034 790.981079,147.272308 
	C787.893311,147.272308 785.408020,147.262711 782.922852,147.273743 
	C739.651550,147.465897 696.380249,147.660583 652.666504,147.349777 
	C651.381775,147.444885 650.097107,147.540009 647.951660,147.584656 
	C645.369568,147.580048 642.787415,147.575439 639.502563,147.164795 
	C637.291565,147.250031 635.080566,147.335266 631.997742,147.341263 
	C619.067871,147.397217 606.137939,147.453186 592.539551,147.145874 
	C590.291870,147.283661 588.044128,147.421448 584.914490,147.545746 
z"/>
<path fill="#1464A6" opacity="1.000000" stroke="none" 
	d="
M575.177734,147.663055 
	C578.423340,147.623947 581.668884,147.584839 585.798218,147.718201 
	C588.857361,147.763489 591.032715,147.636322 593.208069,147.509155 
	C606.137939,147.453186 619.067871,147.397217 632.775330,147.594833 
	C635.770386,147.755875 637.987854,147.663345 640.205322,147.570831 
	C642.787415,147.575439 645.369568,147.580048 648.787903,147.775696 
	C650.785767,147.929398 651.947327,147.892059 653.108948,147.854721 
	C696.380249,147.660583 739.651550,147.465897 782.922852,147.273743 
	C785.408020,147.262711 787.893311,147.272308 790.981079,147.272308 
	C790.981079,303.979034 790.981079,460.342041 790.981079,617.449280 
	C689.829956,617.449280 588.591370,617.449280 486.458435,617.449280 
	C486.458435,461.460541 486.458435,304.994507 486.458435,147.586487 
	C506.103271,147.586487 525.003906,147.586487 544.817200,147.772675 
	C555.545837,147.860260 565.361755,147.761658 575.177734,147.663055 
M782.988281,400.072601 
	C782.995422,327.957489 783.001648,255.842392 783.015320,183.727295 
	C783.015686,181.897629 783.155579,180.067169 783.131165,178.238419 
	C783.037170,171.187820 782.902771,164.137772 782.783447,157.087509 
	C782.503540,157.109985 782.223572,157.132462 781.449402,157.032974 
	C781.290100,156.974503 781.130798,156.916016 780.543884,156.392120 
	C779.373840,156.511932 778.203735,156.631744 776.143066,156.873047 
	C773.748108,156.819641 771.353149,156.766220 768.359009,156.263733 
	C765.919312,156.413040 763.479675,156.562363 760.144836,156.846329 
	C757.440918,156.781601 754.737000,156.716873 751.760315,155.924469 
	C751.198120,155.631836 750.637512,155.087463 750.073486,155.083984 
	C740.258606,155.023178 730.442932,154.985931 720.629028,155.092163 
	C719.738586,155.101791 718.859192,156.127319 717.245667,156.840408 
	C716.505493,156.787628 715.765320,156.734848 714.770630,155.957932 
	C708.858032,156.217331 702.945374,156.476730 696.102051,156.857651 
	C691.080139,156.745956 686.058167,156.634262 681.023743,156.022369 
	C681.007263,155.689499 680.991577,155.356598 681.893311,155.005112 
	C685.077515,155.005112 688.261658,155.005112 691.445862,155.005112 
	C691.484009,154.419540 691.522156,153.833954 691.560242,153.248383 
	C686.075745,152.164246 680.632507,150.587036 675.096008,150.124100 
	C668.566223,149.578094 661.953796,149.895233 655.380554,150.017380 
	C641.265930,150.279648 627.154175,150.866440 613.039795,150.916275 
	C603.002319,150.951721 592.964172,150.148468 582.923157,150.051437 
	C574.318298,149.968292 565.708435,150.520462 557.101440,150.501053 
	C540.638000,150.463928 524.175110,150.210266 507.711639,150.092575 
	C506.917480,150.086899 506.126190,150.694946 505.323273,150.723038 
	C502.422638,150.824539 501.693024,152.507446 501.282196,155.096512 
	C499.863464,155.729279 498.444733,156.362045 496.298737,157.492844 
	C496.079071,159.269547 495.663940,161.046692 495.668121,162.822876 
	C495.789856,214.533386 496.047882,266.243744 496.087311,317.954254 
	C496.141388,388.924591 496.000610,459.895111 496.015137,530.865540 
	C496.020416,556.850952 496.230774,582.836304 495.560760,608.833496 
	C494.428436,604.595215 492.946594,600.409973 492.291809,596.099121 
	C491.883575,593.411316 492.942139,590.535645 492.966400,587.741028 
	C493.060791,576.863342 493.004852,565.984436 493.004852,555.105957 
	C493.004852,536.029480 493.004852,516.952942 493.004852,497.876465 
	C493.004852,485.547485 492.893738,473.217133 493.047455,460.890045 
	C493.136292,453.765045 493.840454,446.646881 493.898376,439.522644 
	C493.928284,435.845764 493.151428,432.162323 492.739136,428.481842 
	C491.973694,428.520233 491.208252,428.558624 490.442841,428.597015 
	C489.961884,435.271637 489.088959,441.944855 489.064941,448.621124 
	C488.930206,486.107391 488.974396,523.594482 489.042725,561.081116 
	C489.049042,564.537476 489.974579,567.997742 489.920990,571.447632 
	C489.761200,581.736816 489.258759,592.020447 489.052643,602.309509 
	C489.008484,604.513733 490.526093,607.083313 489.807465,608.876770 
	C487.726562,614.069946 489.993988,615.037415 494.450043,615.029602 
	C521.107178,614.982849 547.764771,614.948853 574.421509,615.064941 
	C578.186523,615.081360 580.146545,613.930908 580.923584,609.995667 
	C623.176086,609.660400 665.428284,609.152832 707.681335,609.058350 
	C730.951477,609.006348 754.222961,609.670410 777.494446,609.960388 
	C782.371704,610.021240 784.153992,608.075745 783.976501,603.453247 
	C783.623291,594.252502 783.067688,585.050049 783.052185,575.847534 
	C782.954102,517.569214 782.980957,459.290710 782.988281,400.072601 
M491.214478,293.789276 
	C491.527985,290.232849 491.853424,286.677460 492.152527,283.119812 
	C492.775757,275.706177 493.782898,268.298523 493.916931,260.875519 
	C494.192688,245.608185 494.128876,230.330948 493.961792,215.060455 
	C493.785400,198.938126 493.332214,182.818756 492.970642,166.698761 
	C492.953827,165.949463 492.650635,165.206573 492.480804,164.460709 
	C491.951263,164.330643 491.421722,164.200577 490.892181,164.070511 
	C490.261108,165.864975 489.097656,167.654831 489.082123,169.454590 
	C488.941925,185.697266 489.130585,201.942902 488.972839,218.185257 
	C488.772522,238.806320 488.266846,259.424408 488.055542,280.045441 
	C488.001373,285.329071 488.749481,290.618011 488.776184,295.906281 
	C488.797852,300.197754 488.021057,304.495697 488.080505,308.784058 
	C488.173859,315.517792 488.875977,322.243500 488.956635,328.976959 
	C489.107269,341.554138 488.995972,354.134491 488.995453,366.713501 
	C488.995087,375.467407 488.936859,384.222168 489.054352,392.974518 
	C489.075897,394.578705 489.817169,396.173248 490.226227,397.772247 
	C490.794037,397.678253 491.361847,397.584259 491.929626,397.490265 
	C492.288055,394.406433 492.938599,391.324249 492.956482,388.238434 
	C493.056580,370.917328 492.986359,353.595276 493.014221,336.273651 
	C493.023041,330.780884 493.453918,325.272278 493.160553,319.799408 
	C492.709564,311.385315 491.799744,302.995789 491.214478,293.789276 
M489.389679,416.293365 
	C489.281036,419.424072 487.305634,423.223511 492.397705,425.255768 
	C492.914459,421.836090 493.496460,419.140869 493.655975,416.420868 
	C493.731079,415.140228 492.994324,413.811981 492.625427,412.505310 
	C491.652405,413.516937 490.679352,414.528595 489.389679,416.293365 
M490.517914,157.145981 
	C490.795868,158.361633 491.073792,159.577271 491.351746,160.792923 
	C491.784241,160.730957 492.216736,160.669006 492.649261,160.607040 
	C493.100128,158.981888 493.550995,157.356735 494.303345,154.644958 
	C492.490875,155.696640 491.725067,156.141006 490.517914,157.145981 
z"/>
<path fill="#7CB0D0" opacity="1.000000" stroke="none" 
	d="
M574.808105,147.463928 
	C565.361755,147.761658 555.545837,147.860260 545.272217,147.793518 
	C554.689209,147.507034 564.563843,147.385910 574.808105,147.463928 
z"/>
<path fill="#7CB0D0" opacity="1.000000" stroke="none" 
	d="
M592.873779,147.327515 
	C591.032715,147.636322 588.857361,147.763489 586.239258,147.724945 
	C588.044128,147.421448 590.291870,147.283661 592.873779,147.327515 
z"/>
<path fill="#7CB0D0" opacity="1.000000" stroke="none" 
	d="
M639.853943,147.367798 
	C637.987854,147.663345 635.770386,147.755875 633.211243,147.634445 
	C635.080566,147.335266 637.291565,147.250031 639.853943,147.367798 
z"/>
<path fill="#7CB0D0" opacity="1.000000" stroke="none" 
	d="
M652.887695,147.602249 
	C651.947327,147.892059 650.785767,147.929398 649.218262,147.800919 
	C650.097107,147.540009 651.381775,147.444885 652.887695,147.602249 
z"/>
<path fill="#E2F8FC" opacity="1.000000" stroke="none" 
	d="
M780.971497,156.857513 
	C781.130798,156.916016 781.290100,156.974503 781.698364,157.551727 
	C781.900208,184.669037 781.835144,211.267563 781.811096,237.866135 
	C781.787109,264.469421 781.777954,291.072784 781.810120,317.676086 
	C781.843750,345.451965 781.934326,373.227814 781.928223,401.467499 
	C781.856506,470.498016 781.856506,539.064697 781.856506,607.993774 
	C779.813049,607.993774 778.176270,607.994385 776.539429,607.993713 
	C749.755798,607.983093 722.971985,607.922729 696.188477,607.974487 
	C665.041016,608.034668 633.893799,608.210571 602.746338,608.300903 
	C588.785706,608.341370 574.824768,608.295898 561.131958,607.943237 
	C570.565369,607.068237 579.729309,606.117065 588.896606,606.082581 
	C632.618958,605.918335 676.342224,606.001709 720.065125,605.999817 
	C737.721436,605.999023 755.378174,606.057922 773.033569,605.930664 
	C774.870789,605.917480 777.076599,605.272400 778.452271,604.128113 
	C781.041138,601.974670 780.737000,600.156006 776.883179,599.515503 
	C776.607422,584.618835 776.252136,570.188171 776.181152,555.756165 
	C776.124146,544.160461 776.411438,532.563110 776.642700,520.577820 
	C776.731567,519.124451 776.723694,518.059753 776.792175,516.748535 
	C776.823120,516.336121 776.777710,516.170227 776.799683,515.672241 
	C776.822937,514.893005 776.778992,514.445679 776.803711,513.749390 
	C776.820068,513.336304 776.767700,513.172241 776.780762,512.568481 
	C776.784119,509.765350 776.722046,507.401886 776.753296,504.578857 
	C776.740051,499.735138 776.633484,495.351074 776.606934,490.645813 
	C776.618591,489.893341 776.550293,489.462067 776.591492,488.572266 
	C776.693115,418.726196 776.694336,349.338623 776.672668,279.951050 
	C776.665222,255.994019 776.600708,232.037003 776.652710,207.613037 
	C776.692627,195.090408 776.642090,183.034729 776.685303,170.618164 
	C776.750122,169.516281 776.721191,168.775299 776.780151,167.635132 
	C776.581726,161.774857 772.500000,164.656311 769.587158,164.040649 
	C768.132385,164.017578 767.071411,164.056564 765.595215,164.029968 
	C763.782959,164.008804 762.385925,164.053253 760.555664,164.041382 
	C758.089172,164.028809 756.055847,164.072571 753.559204,164.038300 
	C747.732483,164.011795 742.369141,164.063339 736.540527,164.051666 
	C720.057861,164.033539 704.040405,164.078644 687.559265,164.051300 
	C682.389526,164.034317 677.683533,164.089783 672.513672,164.086273 
	C664.686584,164.104630 657.323303,164.181976 649.526733,164.174835 
	C646.742859,164.136246 644.392273,164.182144 641.592102,164.155548 
	C638.414551,164.143494 635.686646,164.203934 632.519287,164.184692 
	C629.685364,164.156204 627.290894,164.207428 624.440063,164.183197 
	C605.696716,164.164581 587.409668,164.221405 568.651123,164.208755 
	C549.780396,164.247116 531.381165,164.354980 512.579834,164.373230 
	C511.083496,164.318024 509.989166,164.352432 508.466827,164.271606 
	C505.919098,164.156357 503.799408,164.156357 501.486664,164.156357 
	C501.486664,198.666641 501.486664,232.850555 501.372131,267.458466 
	C501.261841,269.931305 501.266022,271.980164 501.175659,274.487274 
	C501.137177,283.309875 501.193207,291.674194 501.192810,300.447754 
	C501.225128,302.224792 501.313873,303.592621 501.319214,305.424927 
	C501.249939,319.579010 501.264069,333.268616 501.210571,347.424591 
	C501.241852,354.248322 501.340729,360.605743 501.327606,367.422058 
	C501.313690,379.265625 501.411804,390.650269 501.420166,402.395996 
	C501.393097,403.492798 501.455719,404.228546 501.397552,405.420990 
	C501.267273,412.351929 501.252167,418.826141 501.249359,425.300354 
	C501.237823,451.858368 501.230042,478.416412 501.159668,505.421631 
	C501.173798,508.564209 501.249115,511.259613 501.229858,514.418701 
	C501.184418,533.270691 501.233551,551.658936 501.215942,570.475464 
	C501.209625,572.920654 501.270050,574.937561 501.245575,577.420105 
	C501.295959,585.480774 501.431274,593.075806 501.139221,600.761780 
	C499.835724,601.952209 498.959534,603.051819 498.083374,604.151367 
	C499.241241,604.770142 500.380890,605.879211 501.560150,605.923035 
	C506.800507,606.117798 512.052185,606.006897 517.299744,606.007446 
	C528.987793,606.008606 540.677185,605.927551 552.362427,606.110901 
	C553.916504,606.135254 555.449585,607.502563 556.543762,608.369141 
	C549.302429,608.485046 542.509460,608.431152 535.717224,608.484985 
	C522.812012,608.587280 509.907288,608.751160 496.844055,608.820374 
	C496.685791,608.751282 496.347595,608.821716 496.347595,608.821716 
	C496.230774,582.836304 496.020416,556.850952 496.015137,530.865540 
	C496.000610,459.895111 496.141388,388.924591 496.087311,317.954254 
	C496.047882,266.243744 495.789856,214.533386 495.668121,162.822876 
	C495.663940,161.046692 496.079071,159.269547 497.120239,157.337433 
	C522.999268,157.162674 548.056824,157.178848 573.114136,157.107529 
	C584.059937,157.076385 595.005249,156.866150 606.390198,156.807526 
	C608.901794,156.829208 610.973938,156.780624 613.502563,156.829559 
	C628.981262,156.812790 644.003540,156.698456 659.396362,156.651855 
	C660.508728,156.627045 661.250549,156.534546 662.446167,156.557953 
	C668.945435,156.623413 674.990845,156.572998 681.036255,156.522568 
	C686.058167,156.634262 691.080139,156.745956 697.024902,156.893097 
	C703.640259,156.846375 709.332703,156.764221 715.025146,156.682068 
	C715.765320,156.734848 716.505493,156.787628 718.073486,156.850830 
	C729.945251,156.791565 740.989136,156.721848 752.033081,156.652130 
	C754.737000,156.716873 757.440918,156.781601 761.024536,156.873367 
	C764.255615,156.837875 766.606873,156.775345 768.958191,156.712814 
	C771.353149,156.766220 773.748108,156.819641 776.974365,156.910446 
	C778.860901,156.917740 779.916199,156.887619 780.971497,156.857513 
z"/>
<path fill="#0965B4" opacity="1.000000" stroke="none" 
	d="
M495.954163,608.827637 
	C496.347595,608.821716 496.685791,608.751282 497.114136,609.142639 
	C506.028351,609.687683 514.514160,609.841370 523.061279,610.341675 
	C524.810852,612.671326 526.160645,612.760864 527.468628,609.992798 
	C545.285828,609.999878 562.634399,610.009277 579.982910,610.018616 
	C580.146545,613.930908 578.186523,615.081360 574.421509,615.064941 
	C547.764771,614.948853 521.107178,614.982849 494.450043,615.029602 
	C489.993988,615.037415 487.726562,614.069946 489.807465,608.876770 
	C490.526093,607.083313 489.008484,604.513733 489.052643,602.309509 
	C489.258759,592.020447 489.761200,581.736816 489.920990,571.447632 
	C489.974579,567.997742 489.049042,564.537476 489.042725,561.081116 
	C488.974396,523.594482 488.930206,486.107391 489.064941,448.621124 
	C489.088959,441.944855 489.961884,435.271637 490.442841,428.597015 
	C491.208252,428.558624 491.973694,428.520233 492.739136,428.481842 
	C493.151428,432.162323 493.928284,435.845764 493.898376,439.522644 
	C493.840454,446.646881 493.136292,453.765045 493.047455,460.890045 
	C492.893738,473.217133 493.004852,485.547485 493.004852,497.876465 
	C493.004852,516.952942 493.004852,536.029480 493.004852,555.105957 
	C493.004852,565.984436 493.060791,576.863342 492.966400,587.741028 
	C492.942139,590.535645 491.883575,593.411316 492.291809,596.099121 
	C492.946594,600.409973 494.428436,604.595215 495.954163,608.827637 
M491.516113,605.418335 
	C491.516113,605.418335 491.576721,605.522156 491.516113,605.418335 
z"/>
<path fill="#0965B4" opacity="1.000000" stroke="none" 
	d="
M491.149536,294.192566 
	C491.799744,302.995789 492.709564,311.385315 493.160553,319.799408 
	C493.453918,325.272278 493.023041,330.780884 493.014221,336.273651 
	C492.986359,353.595276 493.056580,370.917328 492.956482,388.238434 
	C492.938599,391.324249 492.288055,394.406433 491.929626,397.490265 
	C491.361847,397.584259 490.794037,397.678253 490.226227,397.772247 
	C489.817169,396.173248 489.075897,394.578705 489.054352,392.974518 
	C488.936859,384.222168 488.995087,375.467407 488.995453,366.713501 
	C488.995972,354.134491 489.107269,341.554138 488.956635,328.976959 
	C488.875977,322.243500 488.173859,315.517792 488.080505,308.784058 
	C488.021057,304.495697 488.797852,300.197754 488.776184,295.906281 
	C488.749481,290.618011 488.001373,285.329071 488.055542,280.045441 
	C488.266846,259.424408 488.772522,238.806320 488.972839,218.185257 
	C489.130585,201.942902 488.941925,185.697266 489.082123,169.454590 
	C489.097656,167.654831 490.261108,165.864975 490.892181,164.070511 
	C491.421722,164.200577 491.951263,164.330643 492.480804,164.460709 
	C492.650635,165.206573 492.953827,165.949463 492.970642,166.698761 
	C493.332214,182.818756 493.785400,198.938126 493.961792,215.060455 
	C494.128876,230.330948 494.192688,245.608185 493.916931,260.875519 
	C493.782898,268.298523 492.775757,275.706177 492.152527,283.119812 
	C491.853424,286.677460 491.527985,290.232849 491.149536,294.192566 
z"/>
<path fill="#0965B4" opacity="1.000000" stroke="none" 
	d="
M501.970703,155.027100 
	C501.693024,152.507446 502.422638,150.824539 505.323273,150.723038 
	C506.126190,150.694946 506.917480,150.086899 507.711639,150.092575 
	C524.175110,150.210266 540.638000,150.463928 557.101440,150.501053 
	C565.708435,150.520462 574.318298,149.968292 582.923157,150.051437 
	C592.964172,150.148468 603.002319,150.951721 613.039795,150.916275 
	C627.154175,150.866440 641.265930,150.279648 655.380554,150.017380 
	C661.953796,149.895233 668.566223,149.578094 675.096008,150.124100 
	C680.632507,150.587036 686.075745,152.164246 691.560242,153.248383 
	C691.522156,153.833954 691.484009,154.419540 691.445862,155.005112 
	C688.261658,155.005112 685.077515,155.005112 680.987671,155.010498 
	C677.388000,155.011337 674.694031,155.006805 671.743225,154.722076 
	C669.323242,154.626404 667.160034,154.810928 664.622559,154.996964 
	C663.499695,154.999191 662.751038,154.999893 661.818359,154.751236 
	C660.755310,154.668762 659.876465,154.835663 658.665161,155.003601 
	C657.889709,155.007339 657.446533,155.010040 656.711853,154.714905 
	C652.718506,154.280823 649.011963,153.989059 645.317688,154.101395 
	C644.184082,154.135864 643.084106,155.276886 641.502319,155.926910 
	C633.034973,155.941483 625.033936,155.940353 616.929688,155.557648 
	C613.724548,154.891083 610.614807,154.327911 607.523560,154.415329 
	C605.328674,154.477386 603.158569,155.417236 600.510193,155.970734 
	C589.698975,155.976532 579.354980,155.976898 568.917969,155.813263 
	C568.546082,155.758469 568.267151,155.867645 567.658325,155.978668 
	C566.888428,155.979797 566.448547,155.979111 565.802429,155.708801 
	C563.970581,154.860748 562.110474,152.252655 560.514160,155.975235 
	C554.040100,155.971207 548.033142,155.964203 541.977844,155.665649 
	C541.605896,155.062225 541.282288,154.750336 540.958618,154.438477 
	C540.629700,154.941422 540.300720,155.444366 539.601807,155.956177 
	C538.491882,155.960129 537.751831,155.955215 536.917114,155.790558 
	C536.543640,155.737167 536.264954,155.843491 535.589111,155.956757 
	C534.132568,155.960617 533.073181,155.957489 531.861450,155.737030 
	C531.135254,155.665070 530.561401,155.810471 529.539307,155.962433 
	C526.402344,155.966232 523.713623,155.963440 520.921875,155.571289 
	C515.544739,155.138382 510.270721,155.094849 504.618896,155.045044 
	C503.484283,155.034866 502.727478,155.030991 501.970703,155.027100 
z"/>
<path fill="#2B6B98" opacity="1.000000" stroke="none" 
	d="
M580.453247,610.007141 
	C562.634399,610.009277 545.285828,609.999878 527.068726,609.986450 
	C525.133423,609.986633 524.066711,609.990845 523.000000,609.995117 
	C514.514160,609.841370 506.028351,609.687683 497.272430,609.211731 
	C509.907288,608.751160 522.812012,608.587280 535.717224,608.484985 
	C542.509460,608.431152 549.302429,608.485046 556.923096,608.464478 
	C558.788757,608.388916 559.826355,608.339233 560.864014,608.289490 
	C574.824768,608.295898 588.785706,608.341370 602.746338,608.300903 
	C633.893799,608.210571 665.041016,608.034668 696.188477,607.974487 
	C722.971985,607.922729 749.755798,607.983093 776.539429,607.993713 
	C778.176270,607.994385 779.813049,607.993774 781.856506,607.993774 
	C781.856506,539.064697 781.856506,470.498016 782.169922,401.469177 
	C782.483276,401.007050 782.966553,401.012268 782.966553,401.012268 
	C782.980957,459.290710 782.954102,517.569214 783.052185,575.847534 
	C783.067688,585.050049 783.623291,594.252502 783.976501,603.453247 
	C784.153992,608.075745 782.371704,610.021240 777.494446,609.960388 
	C754.222961,609.670410 730.951477,609.006348 707.681335,609.058350 
	C665.428284,609.152832 623.176086,609.660400 580.453247,610.007141 
z"/>
<path fill="#266798" opacity="1.000000" stroke="none" 
	d="
M782.977417,400.542419 
	C782.966553,401.012268 782.483276,401.007050 782.241638,401.005371 
	C781.934326,373.227814 781.843750,345.451965 781.810120,317.676086 
	C781.777954,291.072784 781.787109,264.469421 781.811096,237.866135 
	C781.835144,211.267563 781.900208,184.669037 781.945435,157.612701 
	C782.223572,157.132462 782.503540,157.109985 782.783447,157.087509 
	C782.902771,164.137772 783.037170,171.187820 783.131165,178.238419 
	C783.155579,180.067169 783.015686,181.897629 783.015320,183.727295 
	C783.001648,255.842392 782.995422,327.957489 782.977417,400.542419 
z"/>
<path fill="#266798" opacity="1.000000" stroke="none" 
	d="
M501.626465,155.061798 
	C502.727478,155.030991 503.484283,155.034866 504.919434,155.330231 
	C510.740204,155.734695 515.882568,155.847672 521.024902,155.960663 
	C523.713623,155.963440 526.402344,155.966232 529.876953,155.975861 
	C531.113220,155.973267 531.563538,155.963821 532.013855,155.954376 
	C533.073181,155.957489 534.132568,155.960617 535.845459,155.967117 
	C536.669983,155.963776 536.840881,155.957031 537.011841,155.950287 
	C537.751831,155.955215 538.491882,155.960129 539.944092,155.975281 
	C541.112976,155.976089 541.569519,155.966660 542.026123,155.957214 
	C548.033142,155.964203 554.040100,155.971207 560.933533,155.986816 
	C563.216187,155.989746 564.612366,155.984085 566.008606,155.978424 
	C566.448547,155.979111 566.888428,155.979797 567.914062,155.985321 
	C568.670166,155.985870 568.840576,155.981567 569.010986,155.977264 
	C579.354980,155.976898 589.698975,155.976532 600.886353,155.983063 
	C603.136719,156.239075 604.543701,156.488174 605.950745,156.737244 
	C595.005249,156.866150 584.059937,157.076385 573.114136,157.107529 
	C548.056824,157.178848 522.999268,157.162674 497.483887,157.088440 
	C498.444733,156.362045 499.863464,155.729279 501.626465,155.061798 
z"/>
<path fill="#266798" opacity="1.000000" stroke="none" 
	d="
M751.896729,156.288300 
	C740.989136,156.721848 729.945251,156.791565 718.437988,156.771179 
	C718.859192,156.127319 719.738586,155.101791 720.629028,155.092163 
	C730.442932,154.985931 740.258606,155.023178 750.073486,155.083984 
	C750.637512,155.087463 751.198120,155.631836 751.896729,156.288300 
z"/>
<path fill="#0965B4" opacity="1.000000" stroke="none" 
	d="
M489.548004,415.916809 
	C490.679352,414.528595 491.652405,413.516937 492.625427,412.505310 
	C492.994324,413.811981 493.731079,415.140228 493.655975,416.420868 
	C493.496460,419.140869 492.914459,421.836090 492.397705,425.255768 
	C487.305634,423.223511 489.281036,419.424072 489.548004,415.916809 
z"/>
<path fill="#266798" opacity="1.000000" stroke="none" 
	d="
M662.002441,155.000610 
	C662.751038,154.999893 663.499695,154.999191 665.060303,155.002411 
	C667.914917,155.004990 669.957458,155.003632 672.000000,155.002258 
	C674.694031,155.006805 677.388000,155.011337 680.529358,155.019775 
	C680.991577,155.356598 681.007263,155.689499 681.030029,156.272461 
	C674.990845,156.572998 668.945435,156.623413 662.442383,156.317932 
	C661.995544,155.641647 662.001404,155.321167 662.002441,155.000610 
z"/>
<path fill="#266798" opacity="1.000000" stroke="none" 
	d="
M714.897888,156.319992 
	C709.332703,156.764221 703.640259,156.846375 697.490295,156.832336 
	C702.945374,156.476730 708.858032,156.217331 714.897888,156.319992 
z"/>
<path fill="#0965B4" opacity="1.000000" stroke="none" 
	d="
M490.738586,156.865677 
	C491.725067,156.141006 492.490875,155.696640 494.303345,154.644958 
	C493.550995,157.356735 493.100128,158.981888 492.649261,160.607040 
	C492.216736,160.669006 491.784241,160.730957 491.351746,160.792923 
	C491.073792,159.577271 490.795868,158.361633 490.738586,156.865677 
z"/>
<path fill="#266798" opacity="1.000000" stroke="none" 
	d="
M768.658569,156.488281 
	C766.606873,156.775345 764.255615,156.837875 761.472168,156.806030 
	C763.479675,156.562363 765.919312,156.413040 768.658569,156.488281 
z"/>
<path fill="#266798" opacity="1.000000" stroke="none" 
	d="
M780.757690,156.624817 
	C779.916199,156.887619 778.860901,156.917740 777.419678,156.849701 
	C778.203735,156.631744 779.373840,156.511932 780.757690,156.624817 
z"/>
<path fill="#1866A6" opacity="1.000000" stroke="none" 
	d="
M501.402588,304.960449 
	C501.313873,303.592621 501.225128,302.224792 501.536163,300.345032 
	C501.714020,291.231750 501.492126,282.630371 501.270203,274.028992 
	C501.266022,271.980164 501.261841,269.931305 501.717987,267.303864 
	C502.441772,264.975861 502.932098,263.226807 502.934906,261.476990 
	C502.983002,231.531235 502.952332,201.585342 503.015686,171.639648 
	C503.019684,169.749466 503.653168,167.860626 504.249207,166.173157 
	C504.954102,167.134842 505.403656,167.894547 505.277527,167.681381 
	C508.381775,166.974930 510.712341,166.444565 513.508545,165.930115 
	C538.623169,165.943268 563.272156,165.940491 588.320923,165.961960 
	C593.841125,165.967896 598.961670,165.949585 604.533325,165.945374 
	C608.630920,165.953125 612.277344,165.946777 616.370850,165.955536 
	C618.905212,165.952469 620.992554,165.934311 623.468079,165.934860 
	C624.901855,165.947754 625.947388,165.941940 627.461670,165.953094 
	C641.398193,165.977798 654.866089,166.017944 668.333374,165.949432 
	C669.896179,165.941483 671.455933,165.331268 673.481445,164.998795 
	C678.622192,164.996567 683.298584,164.995819 688.274719,165.288208 
	C696.748474,165.690659 704.922546,165.799927 713.476074,165.927902 
	C714.868713,165.932358 715.881897,165.918121 717.369507,165.928741 
	C722.798523,165.966187 727.765137,166.194183 732.703857,165.919922 
	C736.344482,165.717728 737.464844,167.210312 736.538940,170.642822 
	C730.062134,170.723267 724.038574,170.679169 717.882446,170.271912 
	C717.187317,169.619690 716.625793,169.080582 716.062012,169.078201 
	C702.620911,169.021591 689.179260,168.992722 675.738525,169.078659 
	C674.817078,169.084564 673.901733,170.028091 672.552856,170.659180 
	C669.728699,170.750336 667.335205,170.717896 664.666443,170.473236 
	C662.609375,170.418411 660.827576,170.575790 658.620117,170.813019 
	C656.468567,170.831528 654.742554,170.770172 652.996460,170.486938 
	C652.815918,170.041992 652.655579,169.818924 652.495361,169.595856 
	C652.324585,169.967468 652.153870,170.339066 651.616943,170.795471 
	C650.505371,170.825165 649.760132,170.770065 648.891968,170.343567 
	C647.553223,169.650772 646.337708,169.049667 645.121521,169.048355 
	C601.077881,169.001190 557.034058,168.993759 512.990601,169.087067 
	C511.641663,169.089920 510.295166,170.221344 508.867065,170.930298 
	C508.786621,171.033981 508.531128,170.973923 508.415771,171.087143 
	C508.148376,171.359100 508.030090,171.539917 507.990082,171.813965 
	C508.034698,171.885117 507.893951,171.976776 507.690948,172.097168 
	C507.242584,172.432114 507.080109,172.697449 507.000427,173.481079 
	C507.270935,180.288406 507.541565,186.628250 507.887329,193.307953 
	C507.913086,194.106354 507.863739,194.564850 507.554749,195.344406 
	C507.189972,196.482971 506.992798,197.300476 506.992706,198.118011 
	C506.987152,258.995911 506.991150,319.873779 507.044403,380.751648 
	C507.045654,382.156342 507.617798,383.560516 507.964020,385.434265 
	C507.975464,393.895050 507.932129,401.886475 507.919952,409.877960 
	C507.828949,469.643280 507.766724,529.408691 507.601135,589.173767 
	C507.591187,592.765076 508.134735,594.466248 512.415527,594.452820 
	C596.328979,594.189880 680.243042,594.092285 764.156860,593.909790 
	C766.235962,593.905273 768.313843,593.318848 770.752441,592.871216 
	C771.404541,591.009949 771.945374,589.281921 771.950562,587.552368 
	C772.010620,567.539856 771.989807,547.527100 771.990234,527.514404 
	C771.990479,514.478333 771.990295,501.442230 771.990295,488.406128 
	C771.990295,478.275635 771.990234,468.145142 772.368408,458.010925 
	C773.503052,458.013245 774.259460,458.019318 775.021484,458.492432 
	C775.030701,467.550568 774.968323,476.142670 775.102783,484.731720 
	C775.125305,486.171570 776.000732,487.598083 776.482056,489.030792 
	C776.550293,489.462067 776.618591,489.893341 776.261475,490.797852 
	C776.110657,495.860199 776.385254,500.449310 776.659912,505.038452 
	C776.722046,507.401886 776.784119,509.765350 776.646240,512.665833 
	C776.278503,513.547913 776.374756,513.813049 776.734985,513.998413 
	C776.778992,514.445679 776.822937,514.893005 776.662720,515.766357 
	C776.275452,516.531189 776.361206,516.798706 776.715820,516.995056 
	C776.723694,518.059753 776.731567,519.124451 776.294067,520.729126 
	C775.578308,522.347168 775.082642,523.423340 775.073486,524.503540 
	C775.002136,532.892334 775.018860,541.281921 775.019409,549.671265 
	C775.020264,564.444031 774.934082,579.217896 775.097168,593.988953 
	C775.141418,597.995911 773.534607,599.141663 769.756042,599.119507 
	C766.834717,599.102356 763.907959,600.007385 760.548401,600.604370 
	C757.729919,600.706238 755.346680,600.706238 752.628296,600.472656 
	C748.138672,600.161316 743.981628,599.951904 739.830505,600.036011 
	C733.562317,600.163025 727.298279,600.494812 720.568298,600.807373 
	C715.078064,600.825867 710.051941,600.776489 704.682129,600.495911 
	C702.518188,600.176514 700.697998,600.011414 698.877808,600.011047 
	C635.972900,599.998657 573.068054,600.002869 510.163147,600.001038 
	C503.190094,600.000854 502.978516,599.776550 502.967957,592.623047 
	C502.962311,588.795532 503.113739,584.959595 502.894348,581.144775 
	C502.812531,579.722717 501.876831,578.349854 501.330475,576.954529 
	C501.270050,574.937561 501.209625,572.920654 501.522095,570.375488 
	C501.934937,567.608459 501.968414,565.369507 502.015869,563.130737 
	C502.330200,548.288391 502.698486,533.446655 502.887848,518.602661 
	C502.907532,517.060303 501.870941,515.504578 501.324402,513.955017 
	C501.249115,511.259613 501.173798,508.564209 501.404449,505.109528 
	C502.127197,500.414978 502.890076,496.481049 502.905182,492.544250 
	C503.011627,464.791565 502.985931,437.038239 502.904449,409.285400 
	C502.900208,407.843689 502.000946,406.404572 501.518372,404.964264 
	C501.455719,404.228546 501.393097,403.492798 501.762817,402.237854 
	C502.445496,401.134766 502.911072,400.551971 502.914001,399.966888 
	C502.964661,389.881378 502.997833,379.795227 502.898041,369.710571 
	C502.888916,368.790039 501.947906,367.878723 501.439636,366.963135 
	C501.340729,360.605743 501.241852,354.248322 501.449829,347.093933 
	C502.160522,333.923920 502.618195,321.552124 502.893372,309.176270 
	C502.924377,307.782715 501.924438,306.366272 501.402588,304.960449 
z"/>
<path fill="#FAFDFE" opacity="1.000000" stroke="none" 
	d="
M561.131958,607.943237 
	C559.826355,608.339233 558.788757,608.388916 557.371765,608.343262 
	C555.449585,607.502563 553.916504,606.135254 552.362427,606.110901 
	C540.677185,605.927551 528.987793,606.008606 517.299744,606.007446 
	C512.052185,606.006897 506.800507,606.117798 501.560150,605.923035 
	C500.380890,605.879211 499.241241,604.770142 498.083374,604.151367 
	C498.959534,603.051819 499.835724,601.952209 501.278259,600.807007 
	C501.844635,600.761353 502.011047,601.002075 502.066803,601.353516 
	C505.707703,602.133362 509.292389,602.930908 512.878052,602.935242 
	C575.778992,603.011169 638.679932,602.990112 701.580933,602.990234 
	C716.879883,602.990234 732.181885,603.165283 747.476196,602.898560 
	C752.999939,602.802246 758.505310,601.646973 764.468872,600.874451 
	C768.921326,600.509583 772.923889,600.245239 776.926453,599.980896 
	C780.737000,600.156006 781.041138,601.974670 778.452271,604.128113 
	C777.076599,605.272400 774.870789,605.917480 773.033569,605.930664 
	C755.378174,606.057922 737.721436,605.999023 720.065125,605.999817 
	C676.342224,606.001709 632.618958,605.918335 588.896606,606.082581 
	C579.729309,606.117065 570.565369,607.068237 561.131958,607.943237 
z"/>
<path fill="#3370A1" opacity="1.000000" stroke="none" 
	d="
M776.591492,488.572266 
	C776.000732,487.598083 775.125305,486.171570 775.102783,484.731720 
	C774.968323,476.142670 775.030701,467.550568 775.026489,458.020874 
	C775.020203,439.033295 775.014465,420.984314 775.012695,402.623352 
	C775.014709,401.895447 775.012878,401.479462 775.016968,400.588318 
	C775.022217,369.055054 775.021484,337.997040 775.021423,306.551880 
	C775.021057,305.132477 775.020081,304.100189 775.023804,302.592194 
	C775.023132,290.720184 775.017822,279.323822 775.015808,267.570923 
	C775.017212,266.501251 775.015320,265.788116 775.021179,264.598633 
	C775.044983,245.758972 775.060974,227.395721 775.279297,208.942108 
	C775.841858,208.594513 776.202087,208.337265 776.562256,208.079987 
	C776.600708,232.037003 776.665222,255.994019 776.672668,279.951050 
	C776.694336,349.338623 776.693115,418.726196 776.591492,488.572266 
z"/>
<path fill="#3370A1" opacity="1.000000" stroke="none" 
	d="
M502.011047,601.002075 
	C502.011047,601.002075 501.844635,600.761353 501.705597,600.716125 
	C501.431274,593.075806 501.295959,585.480774 501.245575,577.420105 
	C501.876831,578.349854 502.812531,579.722717 502.894348,581.144775 
	C503.113739,584.959595 502.962311,588.795532 502.967957,592.623047 
	C502.978516,599.776550 503.190094,600.000854 510.163147,600.001038 
	C573.068054,600.002869 635.972900,599.998657 698.877808,600.011047 
	C700.697998,600.011414 702.518188,600.176514 704.221985,600.601929 
	C636.740723,600.960022 569.375916,600.981018 502.011047,601.002075 
z"/>
<path fill="#3370A1" opacity="1.000000" stroke="none" 
	d="
M501.397552,405.420990 
	C502.000946,406.404572 502.900208,407.843689 502.904449,409.285400 
	C502.985931,437.038239 503.011627,464.791565 502.905182,492.544250 
	C502.890076,496.481049 502.127197,500.414978 501.465637,504.662354 
	C501.230042,478.416412 501.237823,451.858368 501.249359,425.300354 
	C501.252167,418.826141 501.267273,412.351929 501.397552,405.420990 
z"/>
<path fill="#256CA6" opacity="1.000000" stroke="none" 
	d="
M736.992126,170.518250 
	C737.464844,167.210312 736.344482,165.717728 732.703857,165.919922 
	C727.765137,166.194183 722.798523,165.966187 717.172302,165.686188 
	C715.366028,165.582230 714.231323,165.745712 713.096619,165.909210 
	C704.922546,165.799927 696.748474,165.690659 688.288818,165.070526 
	C688.003174,164.559677 688.023010,164.123749 688.023010,164.123749 
	C704.040405,164.078644 720.057861,164.033539 736.719421,164.274719 
	C737.904968,164.711212 738.446411,164.861435 739.066895,165.386658 
	C742.919922,166.843552 746.635254,168.434875 750.482666,168.877457 
	C755.214722,169.421783 760.061829,168.888245 764.848694,169.082138 
	C766.255676,169.139114 767.626770,170.083847 768.555176,170.724640 
	C757.728027,170.724442 747.360107,170.621338 736.992126,170.518250 
z"/>
<path fill="#3370A1" opacity="1.000000" stroke="none" 
	d="
M503.993835,165.971161 
	C503.653168,167.860626 503.019684,169.749466 503.015686,171.639648 
	C502.952332,201.585342 502.983002,231.531235 502.934906,261.476990 
	C502.932098,263.226807 502.441772,264.975861 501.832520,266.879852 
	C501.486664,232.850555 501.486664,198.666641 501.486664,164.156357 
	C503.799408,164.156357 505.919098,164.156357 508.195465,164.466782 
	C506.899353,165.175186 505.446594,165.573166 503.993835,165.971161 
z"/>
<path fill="#3370A1" opacity="1.000000" stroke="none" 
	d="
M776.883179,599.515503 
	C772.923889,600.245239 768.921326,600.509583 764.094238,600.780640 
	C762.507629,600.692322 761.745667,600.597412 760.983643,600.502502 
	C763.907959,600.007385 766.834717,599.102356 769.756042,599.119507 
	C773.534607,599.141663 775.141418,597.995911 775.097168,593.988953 
	C774.934082,579.217896 775.020264,564.444031 775.019409,549.671265 
	C775.018860,541.281921 775.002136,532.892334 775.073486,524.503540 
	C775.082642,523.423340 775.578308,522.347168 776.197266,521.117798 
	C776.411438,532.563110 776.124146,544.160461 776.181152,555.756165 
	C776.252136,570.188171 776.607422,584.618835 776.883179,599.515503 
z"/>
<path fill="#1866A6" opacity="1.000000" stroke="none" 
	d="
M769.014282,170.621735 
	C767.626770,170.083847 766.255676,169.139114 764.848694,169.082138 
	C760.061829,168.888245 755.214722,169.421783 750.482666,168.877457 
	C746.635254,168.434875 742.919922,166.843552 739.534363,165.379562 
	C744.612244,164.996460 749.301819,164.995438 754.250488,165.273666 
	C756.676514,165.367905 758.843384,165.182877 761.424805,164.998062 
	C763.223145,164.997955 764.607056,164.997665 766.226929,165.269073 
	C767.652832,165.673721 768.842712,165.806686 770.418701,165.948853 
	C772.767273,166.650162 774.729797,167.342224 776.692322,168.034302 
	C776.721191,168.775299 776.750122,169.516281 776.407227,170.684799 
	C775.693604,171.735641 775.351685,172.358978 774.628906,172.987900 
	C773.485413,172.999573 772.722839,173.005661 771.695007,173.006104 
	C771.076111,172.992142 770.722473,172.983856 770.228943,172.661102 
	C769.730774,171.771683 769.372498,171.196716 769.014282,170.621735 
z"/>
<path fill="#3370A1" opacity="1.000000" stroke="none" 
	d="
M587.921143,165.937714 
	C563.272156,165.940491 538.623169,165.943268 513.493530,165.689484 
	C512.989990,165.109970 512.979675,164.786606 512.981873,164.462830 
	C531.381165,164.354980 549.780396,164.247116 568.974854,164.444046 
	C571.591248,164.830521 573.414978,164.875854 575.233154,165.001190 
	C579.463928,165.292877 583.691956,165.623108 587.921143,165.937714 
z"/>
<path fill="#3370A1" opacity="1.000000" stroke="none" 
	d="
M501.229858,514.418701 
	C501.870941,515.504578 502.907532,517.060303 502.887848,518.602661 
	C502.698486,533.446655 502.330200,548.288391 502.015869,563.130737 
	C501.968414,565.369507 501.934937,567.608459 501.588837,569.947266 
	C501.233551,551.658936 501.184418,533.270691 501.229858,514.418701 
z"/>
<path fill="#256CA6" opacity="1.000000" stroke="none" 
	d="
M588.320923,165.961945 
	C583.691956,165.623108 579.463928,165.292877 575.233154,165.001190 
	C573.414978,164.875854 571.591248,164.830521 569.446350,164.513535 
	C587.409668,164.221405 605.696716,164.164581 624.278748,164.377869 
	C624.075745,165.070724 623.577820,165.493454 623.079834,165.916168 
	C620.992554,165.934311 618.905212,165.952469 616.090576,165.671204 
	C611.602844,165.558304 607.842529,165.744797 604.082153,165.931290 
	C598.961670,165.949585 593.841125,165.967896 588.320923,165.961945 
z"/>
<path fill="#256CA6" opacity="1.000000" stroke="none" 
	d="
M673.017090,165.000275 
	C671.455933,165.331268 669.896179,165.941483 668.333374,165.949432 
	C654.866089,166.017944 641.398193,165.977798 627.709229,165.696930 
	C629.311523,165.037338 631.135132,164.650864 632.958679,164.264389 
	C635.686646,164.203934 638.414551,164.143494 641.883545,164.392380 
	C645.069702,164.554260 647.514893,164.406784 649.960022,164.259323 
	C657.323303,164.181976 664.686584,164.104630 672.521851,164.300110 
	C672.993896,164.572922 673.017090,165.000290 673.017090,165.000275 
z"/>
<path fill="#256CA6" opacity="1.000000" stroke="none" 
	d="
M775.009766,172.982300 
	C775.351685,172.358978 775.693604,171.735641 776.313477,171.045685 
	C776.642090,183.034729 776.692627,195.090408 776.652710,207.613052 
	C776.202087,208.337265 775.841858,208.594513 775.254272,208.470337 
	C775.021118,196.386703 775.015442,184.684509 775.009766,172.982300 
z"/>
<path fill="#3370A1" opacity="1.000000" stroke="none" 
	d="
M501.327606,367.422058 
	C501.947906,367.878723 502.888916,368.790039 502.898041,369.710571 
	C502.997833,379.795227 502.964661,389.881378 502.914001,399.966888 
	C502.911072,400.551971 502.445496,401.134766 501.852539,401.876770 
	C501.411804,390.650269 501.313690,379.265625 501.327606,367.422058 
z"/>
<path fill="#3370A1" opacity="1.000000" stroke="none" 
	d="
M501.319214,305.424927 
	C501.924438,306.366272 502.924377,307.782715 502.893372,309.176270 
	C502.618195,321.552124 502.160522,333.923920 501.517456,346.627594 
	C501.264069,333.268616 501.249939,319.579010 501.319214,305.424927 
z"/>
<path fill="#266798" opacity="1.000000" stroke="none" 
	d="
M617.032959,155.939224 
	C625.033936,155.940353 633.034973,155.941483 641.970093,155.954880 
	C647.604004,155.649002 652.303711,155.330856 657.003418,155.012726 
	C657.446533,155.010040 657.889709,155.007339 658.669312,155.267212 
	C659.012390,155.881226 659.019104,156.232681 659.025757,156.584137 
	C644.003540,156.698456 628.981262,156.812790 613.767334,156.607590 
	C614.728149,156.171783 615.880554,156.055511 617.032959,155.939224 
z"/>
<path fill="#1464A6" opacity="1.000000" stroke="none" 
	d="
M616.929688,155.557648 
	C615.880554,156.055511 614.728149,156.171783 613.310913,156.510040 
	C610.973938,156.780624 608.901794,156.829208 606.390198,156.807526 
	C604.543701,156.488174 603.136719,156.239075 601.353516,155.977661 
	C603.158569,155.417236 605.328674,154.477386 607.523560,154.415329 
	C610.614807,154.327911 613.724548,154.891083 616.929688,155.557648 
z"/>
<path fill="#3370A1" opacity="1.000000" stroke="none" 
	d="
M501.175659,274.487274 
	C501.492126,282.630371 501.714020,291.231750 501.592590,299.935822 
	C501.193207,291.674194 501.137177,283.309875 501.175659,274.487274 
z"/>
<path fill="#3370A1" opacity="1.000000" stroke="none" 
	d="
M776.753296,504.578857 
	C776.385254,500.449310 776.110657,495.860199 776.181519,491.119019 
	C776.633484,495.351074 776.740051,499.735138 776.753296,504.578857 
z"/>
<path fill="#256CA6" opacity="1.000000" stroke="none" 
	d="
M512.579834,164.373230 
	C512.979675,164.786606 512.989990,165.109970 513.027893,165.673553 
	C510.712341,166.444565 508.381775,166.974930 505.277527,167.681381 
	C505.403656,167.894547 504.954102,167.134842 504.249176,166.173157 
	C505.446594,165.573166 506.899353,165.175186 508.623505,164.582031 
	C509.989166,164.352432 511.083496,164.318024 512.579834,164.373230 
z"/>
<path fill="#3370A1" opacity="1.000000" stroke="none" 
	d="
M776.780151,167.635117 
	C774.729797,167.342224 772.767273,166.650162 770.406677,165.643555 
	C769.999451,164.920273 769.990234,164.511490 769.981018,164.102722 
	C772.500000,164.656311 776.581726,161.774857 776.780151,167.635117 
z"/>
<path fill="#3370A1" opacity="1.000000" stroke="none" 
	d="
M753.991394,164.994415 
	C749.301819,164.995438 744.612244,164.996460 739.455200,165.004578 
	C738.446411,164.861435 737.904968,164.711212 737.184692,164.337936 
	C742.369141,164.063339 747.732483,164.011795 753.551453,164.257812 
	C754.007141,164.555374 753.991394,164.994415 753.991394,164.994415 
z"/>
<path fill="#3370A1" opacity="1.000000" stroke="none" 
	d="
M673.481445,164.998810 
	C673.017090,165.000290 672.993896,164.572922 672.985718,164.359085 
	C677.683533,164.089783 682.389526,164.034317 687.559265,164.051300 
	C688.023010,164.123749 688.003174,164.559677 687.989136,164.777374 
	C683.298584,164.995819 678.622192,164.996567 673.481445,164.998810 
z"/>
<path fill="#256CA6" opacity="1.000000" stroke="none" 
	d="
M754.250488,165.273666 
	C753.991394,164.994415 754.007141,164.555374 754.014893,164.335846 
	C756.055847,164.072571 758.089172,164.028809 760.560669,164.266052 
	C760.998840,164.547043 761.010254,164.997864 761.010254,164.997864 
	C758.843384,165.182877 756.676514,165.367905 754.250488,165.273666 
z"/>
<path fill="#3370A1" opacity="1.000000" stroke="none" 
	d="
M632.519287,164.184692 
	C631.135132,164.650864 629.311523,165.037338 627.240479,165.679977 
	C625.947388,165.941940 624.901855,165.947754 623.468079,165.934875 
	C623.577820,165.493454 624.075745,165.070724 624.735046,164.453308 
	C627.290894,164.207428 629.685364,164.156204 632.519287,164.184692 
z"/>
<path fill="#1464A6" opacity="1.000000" stroke="none" 
	d="
M659.396362,156.651855 
	C659.019104,156.232681 659.012390,155.881226 659.001648,155.266174 
	C659.876465,154.835663 660.755310,154.668762 661.818359,154.751236 
	C662.001404,155.321167 661.995544,155.641647 661.988525,156.202042 
	C661.250549,156.534546 660.508728,156.627045 659.396362,156.651855 
z"/>
<path fill="#256CA6" opacity="1.000000" stroke="none" 
	d="
M769.587158,164.040649 
	C769.990234,164.511490 769.999451,164.920273 770.020630,165.634338 
	C768.842712,165.806686 767.652832,165.673721 766.232056,165.043671 
	C766.001282,164.546570 766.010437,164.095566 766.010437,164.095566 
	C767.071411,164.056564 768.132385,164.017578 769.587158,164.040649 
z"/>
<path fill="#3370A1" opacity="1.000000" stroke="none" 
	d="
M649.526733,164.174835 
	C647.514893,164.406784 645.069702,164.554260 642.333130,164.464874 
	C644.392273,164.182144 646.742859,164.136246 649.526733,164.174835 
z"/>
<path fill="#3370A1" opacity="1.000000" stroke="none" 
	d="
M765.595215,164.029968 
	C766.010437,164.095566 766.001282,164.546570 765.996094,164.771973 
	C764.607056,164.997665 763.223145,164.997955 761.424805,164.998062 
	C761.010254,164.997864 760.998840,164.547043 760.993896,164.322388 
	C762.385925,164.053253 763.782959,164.008804 765.595215,164.029968 
z"/>
<path fill="#3370A1" opacity="1.000000" stroke="none" 
	d="
M776.803711,513.749390 
	C776.374756,513.813049 776.278503,513.547913 776.580811,513.105469 
	C776.767700,513.172241 776.820068,513.336304 776.803711,513.749390 
z"/>
<path fill="#3370A1" opacity="1.000000" stroke="none" 
	d="
M776.792175,516.748535 
	C776.361206,516.798706 776.275452,516.531189 776.595459,516.098389 
	C776.777710,516.170227 776.823120,516.336121 776.792175,516.748535 
z"/>
<path fill="#1464A6" opacity="1.000000" stroke="none" 
	d="
M523.061279,610.341675 
	C524.066711,609.990845 525.133423,609.986633 526.600098,609.988770 
	C526.160645,612.760864 524.810852,612.671326 523.061279,610.341675 
z"/>
<path fill="#1464A6" opacity="1.000000" stroke="none" 
	d="
M491.546417,605.470215 
	C491.576721,605.522156 491.516113,605.418335 491.546417,605.470215 
z"/>
<path fill="#1464A6" opacity="1.000000" stroke="none" 
	d="
M520.921875,155.571289 
	C515.882568,155.847672 510.740204,155.734695 505.297272,155.336517 
	C510.270721,155.094849 515.544739,155.138382 520.921875,155.571289 
z"/>
<path fill="#1464A6" opacity="1.000000" stroke="none" 
	d="
M656.711853,154.714905 
	C652.303711,155.330856 647.604004,155.649002 642.436523,155.939148 
	C643.084106,155.276886 644.184082,154.135864 645.317688,154.101395 
	C649.011963,153.989059 652.718506,154.280823 656.711853,154.714905 
z"/>
<path fill="#1464A6" opacity="1.000000" stroke="none" 
	d="
M565.802429,155.708801 
	C564.612366,155.984085 563.216187,155.989746 561.400635,155.983826 
	C562.110474,152.252655 563.970581,154.860748 565.802429,155.708801 
z"/>
<path fill="#1464A6" opacity="1.000000" stroke="none" 
	d="
M671.743225,154.722076 
	C669.957458,155.003632 667.914917,155.004990 665.434570,155.000900 
	C667.160034,154.810928 669.323242,154.626404 671.743225,154.722076 
z"/>
<path fill="#1464A6" opacity="1.000000" stroke="none" 
	d="
M541.977844,155.665665 
	C541.569519,155.966660 541.112976,155.976089 540.314087,155.966415 
	C540.300720,155.444366 540.629700,154.941422 540.958618,154.438477 
	C541.282288,154.750336 541.605896,155.062225 541.977844,155.665665 
z"/>
<path fill="#1464A6" opacity="1.000000" stroke="none" 
	d="
M531.861450,155.737030 
	C531.563538,155.963821 531.113220,155.973267 530.325195,155.969284 
	C530.561401,155.810471 531.135254,155.665070 531.861450,155.737030 
z"/>
<path fill="#1464A6" opacity="1.000000" stroke="none" 
	d="
M536.917114,155.790558 
	C536.840881,155.957031 536.669983,155.963776 536.242676,155.960144 
	C536.264954,155.843491 536.543640,155.737167 536.917114,155.790558 
z"/>
<path fill="#1464A6" opacity="1.000000" stroke="none" 
	d="
M568.917969,155.813263 
	C568.840576,155.981567 568.670166,155.985870 568.244019,155.983505 
	C568.267151,155.867645 568.546082,155.758469 568.917969,155.813263 
z"/>
<path fill="#FAFDFE" opacity="1.000000" stroke="none" 
	d="
M768.555115,170.724640 
	C769.372498,171.196716 769.730774,171.771683 770.123657,173.121063 
	C770.113281,187.549698 770.029907,201.203918 770.029114,214.858154 
	C770.022522,333.254852 770.024231,451.651520 770.050049,570.048218 
	C770.051697,577.700073 770.273132,585.351929 770.392273,593.003784 
	C768.313843,593.318848 766.235962,593.905273 764.156860,593.909790 
	C680.243042,594.092285 596.328979,594.189880 512.415527,594.452820 
	C508.134735,594.466248 507.591187,592.765076 507.601135,589.173767 
	C507.766724,529.408691 507.828949,469.643280 507.919952,409.877960 
	C507.932129,401.886475 507.975464,393.895050 508.105896,384.986969 
	C508.182831,342.831635 508.188965,301.592896 508.121216,260.354279 
	C508.085449,238.577194 507.920837,216.800323 507.814392,195.023361 
	C507.863739,194.564850 507.913086,194.106354 507.980225,192.848969 
	C507.950684,185.716370 507.903351,179.382675 507.928864,172.783173 
	C507.965820,172.337173 507.929871,172.156967 507.893951,171.976776 
	C507.893951,171.976776 508.034698,171.885117 508.143066,171.733871 
	C508.439484,171.423279 508.532715,171.220383 508.531128,170.973923 
	C508.531128,170.973923 508.786621,171.033981 509.336517,170.977722 
	C532.328735,170.797363 554.770935,170.600189 577.213379,170.569077 
	C601.147095,170.535904 625.080994,170.659683 649.014832,170.714966 
	C649.760132,170.770065 650.505371,170.825165 651.875366,170.870911 
	C652.672302,170.810623 652.844421,170.759705 653.016602,170.708801 
	C654.742554,170.770172 656.468567,170.831528 659.033997,170.909851 
	C661.562866,170.846359 663.252319,170.765900 664.941711,170.685455 
	C667.335205,170.717896 669.728699,170.750336 673.012390,170.760773 
	C688.606689,170.704178 703.310852,170.669617 718.014954,170.635056 
	C724.038574,170.679169 730.062134,170.723267 736.538940,170.642822 
	C747.360107,170.621338 757.728027,170.724442 768.555115,170.724640 
M596.165833,554.246338 
	C596.165833,554.246338 596.222595,554.379211 596.826904,554.321899 
	C597.301392,553.973083 597.775879,553.624207 598.089539,553.178589 
	C598.089539,553.178589 598.202209,553.328613 598.922546,553.233032 
	C601.946899,551.488037 604.971191,549.743042 608.000000,548.000000 
	C608.000000,548.000000 607.998840,547.996399 608.542908,547.960754 
	C608.774719,547.699036 609.006531,547.437256 609.118408,547.146240 
	C609.118408,547.146240 609.147827,547.266113 609.828796,547.173523 
	C610.759521,546.527710 611.690186,545.881836 612.844727,545.274780 
	C612.844727,545.274780 612.990723,545.100769 613.556946,545.075806 
	C613.814453,544.820007 614.071960,544.564209 614.198242,544.293762 
	C614.198242,544.293762 614.279236,544.398132 614.924377,544.280884 
	C615.974792,543.538940 617.025208,542.796936 618.009155,542.002197 
	C618.009155,542.002197 618.048523,542.077332 618.689514,541.975525 
	C619.800537,540.988403 620.911499,540.001282 622.001770,538.997559 
	C622.001770,538.997559 622.011292,539.021118 622.752747,539.004639 
	C623.333557,537.993286 623.914307,536.981995 624.697266,535.154114 
	C624.570068,533.775452 624.442871,532.396851 624.589539,530.117432 
	C624.518982,501.527100 624.437561,472.936798 624.383179,444.346436 
	C624.361450,432.891083 624.399353,421.435638 624.678589,409.116547 
	C624.694214,406.396088 624.709839,403.675659 624.927673,400.059418 
	C624.897888,396.370941 624.868042,392.682465 624.999329,388.071533 
	C625.113403,377.355316 625.855347,366.610657 624.784973,355.948120 
	C624.157837,355.820923 623.530762,355.693695 622.903687,355.566498 
	C621.724060,357.382751 620.544434,359.199036 619.131653,361.923676 
	C618.690491,418.353149 618.263428,474.782745 617.732422,531.211365 
	C617.718140,532.733276 617.017334,534.921021 615.893127,535.647400 
	C610.062317,539.414612 603.989624,542.807495 597.330017,546.469055 
	C593.511841,548.945374 589.693604,551.421753 585.968994,553.980042 
	C585.968994,553.980042 585.914001,553.868469 585.247253,553.955933 
	C583.807861,554.953003 582.368469,555.950073 580.991821,557.000122 
	C580.991821,557.000122 580.952942,556.927734 580.260132,557.043152 
	C577.937866,558.620117 575.615540,560.197083 573.139771,561.654297 
	C573.139771,561.654297 572.961975,561.733643 572.252441,561.753052 
	C568.784302,563.536316 568.771545,565.631042 571.887146,568.350281 
	C576.250244,565.899841 580.618225,563.446594 585.000000,561.000305 
	C585.000000,561.000305 584.994873,560.988586 585.624939,560.921387 
	C586.449951,560.306458 587.274963,559.691528 588.026978,559.017822 
	C588.026978,559.017822 588.051514,559.108337 588.592041,559.044434 
	C588.836426,558.795776 589.080750,558.547058 589.195435,558.277771 
	C589.195435,558.277771 589.270447,558.385559 589.948059,558.273376 
	C591.643188,557.189514 593.338379,556.105713 595.005676,554.995728 
	C595.005676,554.995728 595.013977,555.032471 595.555176,554.995728 
	C595.805664,554.756714 596.056152,554.517639 596.165833,554.246338 
M578.055481,462.929810 
	C578.055481,462.929810 578.113770,462.831757 578.157410,463.605469 
	C579.511963,464.039307 580.866455,464.473175 582.756714,464.978180 
	C583.188110,465.280518 583.619568,465.582825 584.036560,466.663361 
	C587.360107,469.878693 591.009705,472.256348 596.647156,471.257507 
	C597.108582,471.276428 597.569946,471.295349 598.318970,471.551270 
	C598.524780,471.313049 598.730530,471.074829 599.225769,470.267059 
	C601.786926,468.489044 600.387634,467.429871 598.536194,466.443665 
	C589.462463,461.610199 580.402161,456.751495 571.310242,451.952362 
	C568.426025,450.429962 565.459229,449.064056 561.758118,447.247620 
	C553.988708,463.601044 546.181519,479.360016 539.142700,495.455109 
	C537.837280,498.440216 538.667542,503.228333 540.156494,506.416168 
	C546.620972,520.256287 553.683655,533.817505 560.563904,547.462402 
	C561.216248,548.756042 562.112976,549.926575 562.710815,550.863586 
	C565.809204,548.943176 568.515686,547.168640 571.312988,545.551025 
	C578.211975,541.561340 585.270142,537.832581 592.032471,533.626343 
	C596.094849,531.099487 595.902832,530.754822 592.722595,526.156372 
	C583.514709,531.558899 574.280945,536.976624 564.452393,542.743286 
	C557.590149,529.092041 550.929199,516.111877 544.618469,502.963501 
	C543.778259,501.213013 544.102295,498.335114 544.945557,496.453644 
	C547.315430,491.165771 550.237976,486.125641 553.648438,480.893707 
	C557.507874,475.842346 561.446838,470.825256 560.981628,463.407806 
	C560.981628,463.407806 561.250000,462.989868 561.626160,462.730103 
	C561.849365,462.493500 561.949829,462.212921 561.982971,461.975220 
	C561.982971,461.975220 561.891724,461.927277 562.607727,461.964600 
	C565.143127,460.889435 567.678528,459.814270 570.210754,458.712006 
	C570.210754,458.712006 570.238220,458.707642 570.174622,459.483093 
	C572.218445,460.279846 574.262329,461.076630 576.704346,461.898865 
	C576.704346,461.898865 577.001160,462.165466 577.267090,462.572937 
	C577.515686,462.818542 577.813904,462.923553 578.055481,462.929810 
M583.047241,438.537659 
	C570.545166,431.709106 558.043091,424.880554 545.187317,417.858795 
	C570.002686,371.589386 594.636108,325.659241 619.256287,279.753784 
	C614.888672,276.175049 613.052917,276.368317 610.274475,280.975220 
	C608.301819,284.246338 606.619629,287.693604 604.829224,291.073547 
	C587.316467,324.133484 569.807800,357.195587 552.298767,390.257477 
	C546.879883,400.489838 541.463135,410.723267 536.441528,420.207977 
	C549.849365,427.708374 562.568665,434.851471 575.315796,441.944733 
	C584.036865,446.797638 592.781189,451.609344 601.546265,456.382263 
	C605.282288,458.416687 607.704895,457.198975 609.229431,452.863770 
	C600.578308,448.117859 592.144958,443.491486 583.047241,438.537659 
M700.443787,342.157532 
	C713.561890,366.400391 726.679993,390.643250 739.870483,415.019928 
	C738.538635,415.946289 737.646179,416.672089 736.661316,417.236450 
	C718.629150,427.569397 700.603210,437.913574 682.530579,448.175354 
	C678.839050,450.271393 675.511414,452.277039 679.279724,458.111298 
	C702.901978,444.601532 726.560913,431.070770 750.440125,417.414032 
	C746.756714,411.805695 743.219604,407.146912 740.444580,402.071442 
	C727.034363,377.544617 713.824524,352.908142 700.552673,328.305664 
	C692.098267,312.633514 683.703308,296.929047 675.187683,281.290253 
	C672.607422,276.551697 669.774658,276.233643 666.004333,279.996918 
	C677.354065,300.487946 688.716919,321.002472 700.443787,342.157532 
M667.470459,523.809570 
	C667.357727,515.981995 667.137146,508.154205 667.154785,500.326935 
	C667.190857,484.347565 667.456238,468.368469 667.444763,452.389374 
	C667.423279,422.401367 667.314392,392.413116 667.103821,362.425964 
	C667.084717,359.701752 666.066101,356.984528 665.511658,354.264069 
	C664.676331,354.215576 663.841003,354.167053 663.005676,354.118561 
	C662.258057,357.226990 660.874390,360.333496 660.864990,363.444153 
	C660.798218,385.423065 661.097534,407.402710 661.119751,429.382324 
	C661.155640,464.873810 661.036316,500.365570 661.143066,535.856750 
	C661.147644,537.373596 662.380676,539.552246 663.684387,540.296692 
	C676.399780,547.557373 689.223083,554.631775 702.083557,561.634399 
	C705.981995,563.757202 710.091431,565.492371 714.280701,567.489258 
	C715.162231,565.718384 715.945251,564.145386 716.848816,562.330261 
	C703.362854,554.913208 690.420776,546.930969 676.716736,540.597229 
	C669.047546,537.052612 666.095520,532.644714 667.470459,523.809570 
M690.502625,529.864380 
	C691.217407,531.134705 691.613892,532.921875 692.699280,533.590332 
	C699.067017,537.511780 705.509399,541.337769 712.139099,544.787598 
	C713.552795,545.523193 716.344604,545.249573 717.651245,544.286865 
	C726.482544,537.779663 734.902771,530.704224 743.854675,524.376709 
	C747.266663,521.964966 747.239014,519.936523 745.399292,517.071472 
	C744.421753,515.549316 743.302856,514.050598 741.983826,512.825378 
	C726.887512,498.802185 711.736084,484.838257 696.620056,470.836243 
	C695.916138,470.184174 695.407104,469.321747 694.520508,468.191742 
	C702.456177,463.831787 710.102173,459.509674 717.905029,455.492218 
	C718.920044,454.969666 721.166626,455.548279 722.121948,456.413055 
	C727.754822,461.511749 733.174255,466.846161 738.665344,472.100922 
	C741.384827,470.432312 741.676575,468.538422 739.565552,466.354858 
	C734.037109,460.636566 728.318970,455.089050 723.024902,449.162201 
	C720.514038,446.351349 718.432190,446.898651 715.820801,448.499817 
	C707.322876,453.710144 698.764954,458.822998 690.288879,464.068359 
	C684.254089,467.802979 684.384705,468.769440 690.059265,473.231049 
	C694.887573,477.027374 699.707703,480.911682 704.036133,485.251251 
	C715.379028,496.623260 726.451172,508.265320 737.785950,519.959351 
	C731.324646,525.446289 724.438904,531.445068 717.324036,537.158569 
	C716.350952,537.940002 713.979980,537.837830 712.694153,537.225342 
	C706.850586,534.441711 701.204041,531.247009 695.392639,528.391479 
	C693.911377,527.663635 691.725342,525.688538 690.502625,529.864380 
M709.301025,397.161469 
	C695.353149,371.604889 681.362244,346.071594 667.502441,320.467346 
	C665.343384,316.478790 663.110107,315.997620 659.339722,319.641937 
	C675.711243,348.968231 692.128540,378.376526 708.752441,408.154968 
	C701.290527,412.717499 694.155029,417.225647 686.874817,421.486511 
	C680.907898,424.978699 680.044373,426.392883 681.752625,432.344788 
	C683.596497,431.564911 685.563599,431.069641 687.147400,430.004425 
	C693.906494,425.458496 700.594299,420.803131 707.229614,416.077454 
	C717.181396,408.989777 716.070496,410.052277 711.063354,400.455292 
	C710.601318,399.569733 710.143799,398.681732 709.301025,397.161469 
M589.578308,388.149872 
	C595.124023,377.164429 600.522644,366.101410 606.257263,355.215485 
	C611.916260,344.473206 618.011841,333.960632 623.648621,323.207153 
	C624.392578,321.787964 623.556091,319.540314 623.451477,317.676331 
	C622.003723,318.263397 619.783997,318.439728 619.221191,319.497559 
	C605.026794,346.179443 590.981689,372.940979 576.978149,399.723938 
	C574.418579,404.619446 572.153076,409.668701 569.819214,414.507111 
	C580.250916,420.472870 589.903198,426.030487 599.599121,431.510895 
	C601.968262,432.849976 604.539307,434.469055 607.226685,429.940735 
	C597.216980,423.530396 587.390808,417.237610 577.541565,410.930023 
	C581.476685,403.475647 585.349548,396.139130 589.578308,388.149872 
M602.312256,575.717529 
	C603.221375,577.092957 604.130493,578.468323 605.221497,580.118958 
	C615.896423,572.814270 625.997070,565.856323 636.147644,558.971863 
	C643.789246,553.789062 643.699829,554.005127 651.213379,559.086670 
	C660.691711,565.497070 670.410522,571.550720 679.974915,577.835388 
	C683.308289,580.025574 685.412354,579.431702 686.726807,574.809021 
	C673.103821,565.981323 660.421448,555.416199 645.074646,549.114624 
	C643.456726,548.450317 640.745422,549.139832 639.083557,550.120300 
	C632.221252,554.168823 625.442017,558.388245 618.876282,562.900024 
	C613.311096,566.724304 608.081543,571.036987 602.312256,575.717529 
M624.231934,262.330597 
	C625.437378,264.201843 626.642822,266.073090 628.151672,268.415375 
	C630.811401,267.665863 633.627808,266.872162 636.444214,266.078491 
	C635.691772,263.613098 634.918640,261.153687 634.201233,258.678131 
	C634.017944,258.045807 634.028992,257.359406 633.920166,256.702881 
	C630.404114,235.487610 623.055481,215.652817 612.279053,197.082550 
	C609.621460,192.502945 606.637268,188.112839 603.803284,183.635605 
	C603.298706,183.871750 602.794128,184.107880 602.289551,184.344009 
	C602.967102,186.980759 603.089905,189.941162 604.409668,192.203217 
	C615.308289,210.883377 623.175232,230.648529 627.104004,251.983322 
	C627.838806,255.973297 629.110962,259.529663 624.231934,262.330597 
M662.300293,212.844208 
	C657.159973,227.081375 652.472534,241.431381 651.223938,256.655792 
	C651.160645,257.427460 650.908020,258.711151 650.468750,258.843353 
	C645.701416,260.277954 648.566406,264.006592 647.560303,266.852722 
	C651.241821,266.852722 654.482849,266.852722 657.890747,266.852722 
	C657.890747,264.595581 658.647583,262.150146 657.756348,260.765442 
	C654.363831,255.494614 656.036987,250.102081 657.315491,245.071609 
	C661.944824,226.856689 667.703979,209.030075 677.583191,192.793701 
	C678.752747,190.871536 678.515503,188.093399 678.930359,185.712051 
	C678.143799,185.445953 677.357178,185.179871 676.570557,184.913788 
	C671.931458,193.994217 667.292358,203.074646 662.300293,212.844208 
z"/>
<path fill="#256CA6" opacity="1.000000" stroke="none" 
	d="
M770.752441,592.871216 
	C770.273132,585.351929 770.051697,577.700073 770.050049,570.048218 
	C770.024231,451.651520 770.022522,333.254852 770.029114,214.858154 
	C770.029907,201.203918 770.113281,187.549698 770.263550,173.435516 
	C770.722473,172.983856 771.076111,172.992142 771.706360,173.473343 
	C771.984619,174.942993 771.987610,175.939728 771.987610,176.936478 
	C771.987854,204.679382 771.979187,232.422302 772.004395,260.165192 
	C772.006348,262.344421 771.191895,265.171844 775.013428,265.075012 
	C775.015320,265.788116 775.017212,266.501251 774.598267,267.609253 
	C773.449341,269.066711 772.108032,270.118591 772.089233,271.193542 
	C771.923889,280.677582 771.889832,290.168335 772.127197,299.649323 
	C772.156311,300.812256 774.010620,301.929474 775.019043,303.067871 
	C775.020081,304.100189 775.021057,305.132477 774.626160,306.622131 
	C773.484192,308.387909 772.092529,309.693573 772.086853,311.005157 
	C771.962952,339.890442 771.958130,368.776520 772.120361,397.661469 
	C772.126709,398.800842 774.004944,399.929749 775.010986,401.063538 
	C775.012878,401.479462 775.014709,401.895447 774.595032,402.658081 
	C773.444824,404.562378 772.096863,406.114410 772.082642,407.678497 
	C771.930603,424.456116 771.989258,441.235657 771.990234,458.014648 
	C771.990234,468.145142 771.990295,478.275635 771.990295,488.406128 
	C771.990295,501.442230 771.990479,514.478333 771.990234,527.514404 
	C771.989807,547.527100 772.010620,567.539856 771.950562,587.552368 
	C771.945374,589.281921 771.404541,591.009949 770.752441,592.871216 
z"/>
<path fill="#E2F8FC" opacity="1.000000" stroke="none" 
	d="
M760.548401,600.604370 
	C761.745667,600.597412 762.507629,600.692322 763.644348,600.881104 
	C758.505310,601.646973 752.999939,602.802246 747.476196,602.898560 
	C732.181885,603.165283 716.879883,602.990234 701.580933,602.990234 
	C638.679932,602.990112 575.778992,603.011169 512.878052,602.935242 
	C509.292389,602.930908 505.707703,602.133362 502.066803,601.353516 
	C569.375916,600.981018 636.740723,600.960022 704.565735,600.833008 
	C710.051941,600.776489 715.078064,600.825867 721.026733,600.899109 
	C732.287354,600.850708 742.625366,600.778442 752.963440,600.706177 
	C755.346680,600.706238 757.729919,600.706238 760.548401,600.604370 
z"/>
<path fill="#256CA6" opacity="1.000000" stroke="none" 
	d="
M648.891968,170.343567 
	C625.080994,170.659683 601.147095,170.535904 577.213379,170.569077 
	C554.770935,170.600189 532.328735,170.797363 509.416992,170.874023 
	C510.295166,170.221344 511.641663,169.089920 512.990601,169.087067 
	C557.034058,168.993759 601.077881,169.001190 645.121521,169.048355 
	C646.337708,169.049667 647.553223,169.650772 648.891968,170.343567 
z"/>
<path fill="#1E5A83" opacity="1.000000" stroke="none" 
	d="
M507.554779,195.344406 
	C507.920837,216.800323 508.085449,238.577194 508.121216,260.354279 
	C508.188965,301.592896 508.182831,342.831635 508.065552,384.517639 
	C507.617798,383.560516 507.045654,382.156342 507.044403,380.751648 
	C506.991150,319.873779 506.987152,258.995911 506.992706,198.118011 
	C506.992798,197.300476 507.189972,196.482971 507.554779,195.344406 
z"/>
<path fill="#105FA4" opacity="1.000000" stroke="none" 
	d="
M772.368408,458.010925 
	C771.989258,441.235657 771.930603,424.456116 772.082642,407.678497 
	C772.096863,406.114410 773.444824,404.562378 774.591064,402.970032 
	C775.014465,420.984314 775.020203,439.033295 775.020996,457.553833 
	C774.259460,458.019318 773.503052,458.013245 772.368408,458.010925 
z"/>
<path fill="#256CA6" opacity="1.000000" stroke="none" 
	d="
M717.882446,170.271912 
	C703.310852,170.669617 688.606689,170.704178 673.443054,170.637161 
	C673.901733,170.028091 674.817078,169.084564 675.738525,169.078659 
	C689.179260,168.992722 702.620911,169.021591 716.062012,169.078201 
	C716.625793,169.080582 717.187317,169.619690 717.882446,170.271912 
z"/>
<path fill="#3370A1" opacity="1.000000" stroke="none" 
	d="
M752.628296,600.472656 
	C742.625366,600.778442 732.287354,600.850708 721.490845,600.831238 
	C727.298279,600.494812 733.562317,600.163025 739.830505,600.036011 
	C743.981628,599.951904 748.138672,600.161316 752.628296,600.472656 
z"/>
<path fill="#1E5A83" opacity="1.000000" stroke="none" 
	d="
M507.855988,173.048965 
	C507.903351,179.382675 507.950684,185.716370 507.905121,192.509079 
	C507.541565,186.628250 507.270935,180.288406 507.214355,173.487839 
	C507.428436,173.027100 507.855988,173.048965 507.855988,173.048965 
z"/>
<path fill="#3370A1" opacity="1.000000" stroke="none" 
	d="
M604.533325,165.945374 
	C607.842529,165.744797 611.602844,165.558304 615.643433,165.656128 
	C612.277344,165.946777 608.630920,165.953125 604.533325,165.945374 
z"/>
<path fill="#256CA6" opacity="1.000000" stroke="none" 
	d="
M664.666443,170.473236 
	C663.252319,170.765900 661.562866,170.846359 659.459595,170.829987 
	C660.827576,170.575790 662.609375,170.418411 664.666443,170.473236 
z"/>
<path fill="#3370A1" opacity="1.000000" stroke="none" 
	d="
M713.476074,165.927902 
	C714.231323,165.745712 715.366028,165.582230 716.697876,165.661316 
	C715.881897,165.918121 714.868713,165.932358 713.476074,165.927902 
z"/>
<path fill="#256CA6" opacity="1.000000" stroke="none" 
	d="
M652.996460,170.486938 
	C652.844421,170.759705 652.672302,170.810623 652.241638,170.786118 
	C652.153870,170.339066 652.324585,169.967468 652.495361,169.595856 
	C652.655579,169.818924 652.815918,170.041992 652.996460,170.486938 
z"/>
<path fill="#256CA6" opacity="1.000000" stroke="none" 
	d="
M508.415771,171.087143 
	C508.532715,171.220383 508.439484,171.423279 508.098450,171.662720 
	C508.030090,171.539917 508.148376,171.359100 508.415771,171.087143 
z"/>
<path fill="#256CA6" opacity="1.000000" stroke="none" 
	d="
M507.928864,172.783173 
	C507.855988,173.048965 507.428436,173.027100 507.214478,173.020340 
	C507.080109,172.697449 507.242584,172.432114 507.690948,172.097168 
	C507.929871,172.156967 507.965820,172.337173 507.928864,172.783173 
z"/>
<path fill="#105FA4" opacity="1.000000" stroke="none" 
	d="
M775.016968,400.588318 
	C774.004944,399.929749 772.126709,398.800842 772.120361,397.661469 
	C771.958130,368.776520 771.962952,339.890442 772.086853,311.005157 
	C772.092529,309.693573 773.484192,308.387909 774.625549,307.009216 
	C775.021484,337.997040 775.022217,369.055054 775.016968,400.588318 
z"/>
<path fill="#105FA4" opacity="1.000000" stroke="none" 
	d="
M775.021118,264.598633 
	C771.191895,265.171844 772.006348,262.344421 772.004395,260.165192 
	C771.979187,232.422302 771.987854,204.679382 771.987610,176.936478 
	C771.987610,175.939728 771.984619,174.942993 771.971619,173.479004 
	C772.722839,173.005661 773.485413,172.999573 774.628845,172.987885 
	C775.015442,184.684509 775.021118,196.386703 775.051880,208.560699 
	C775.060974,227.395721 775.044983,245.758972 775.021118,264.598633 
z"/>
<path fill="#105FA4" opacity="1.000000" stroke="none" 
	d="
M775.023804,302.592194 
	C774.010620,301.929474 772.156311,300.812256 772.127197,299.649323 
	C771.889832,290.168335 771.923889,280.677582 772.089233,271.193542 
	C772.108032,270.118591 773.449341,269.066711 774.594971,267.965820 
	C775.017822,279.323822 775.023132,290.720184 775.023804,302.592194 
z"/>
<path fill="#1F68A4" opacity="1.000000" stroke="none" 
	d="
M583.379456,438.701385 
	C592.144958,443.491486 600.578308,448.117859 609.229431,452.863770 
	C607.704895,457.198975 605.282288,458.416687 601.546265,456.382263 
	C592.781189,451.609344 584.036865,446.797638 575.315796,441.944733 
	C562.568665,434.851471 549.849365,427.708374 536.441528,420.207977 
	C541.463135,410.723267 546.879883,400.489838 552.298767,390.257477 
	C569.807800,357.195587 587.316467,324.133484 604.829224,291.073547 
	C606.619629,287.693604 608.301819,284.246338 610.274475,280.975220 
	C613.052917,276.368317 614.888672,276.175049 619.256287,279.753784 
	C594.636108,325.659241 570.002686,371.589386 545.187317,417.858795 
	C558.043091,424.880554 570.545166,431.709106 583.379456,438.701385 
z"/>
<path fill="#2068A5" opacity="1.000000" stroke="none" 
	d="
M700.261719,341.837280 
	C688.716919,321.002472 677.354065,300.487946 666.004333,279.996918 
	C669.774658,276.233643 672.607422,276.551697 675.187683,281.290253 
	C683.703308,296.929047 692.098267,312.633514 700.552673,328.305664 
	C713.824524,352.908142 727.034363,377.544617 740.444580,402.071442 
	C743.219604,407.146912 746.756714,411.805695 750.440125,417.414032 
	C726.560913,431.070770 702.901978,444.601532 679.279724,458.111298 
	C675.511414,452.277039 678.839050,450.271393 682.530579,448.175354 
	C700.603210,437.913574 718.629150,427.569397 736.661316,417.236450 
	C737.646179,416.672089 738.538635,415.946289 739.870483,415.019928 
	C726.679993,390.643250 713.561890,366.400391 700.261719,341.837280 
z"/>
<path fill="#2169A4" opacity="1.000000" stroke="none" 
	d="
M667.470947,524.277344 
	C666.095520,532.644714 669.047546,537.052612 676.716736,540.597229 
	C690.420776,546.930969 703.362854,554.913208 716.848816,562.330261 
	C715.945251,564.145386 715.162231,565.718384 714.280701,567.489258 
	C710.091431,565.492371 705.981995,563.757202 702.083557,561.634399 
	C689.223083,554.631775 676.399780,547.557373 663.684387,540.296692 
	C662.380676,539.552246 661.147644,537.373596 661.143066,535.856750 
	C661.036316,500.365570 661.155640,464.873810 661.119751,429.382324 
	C661.097534,407.402710 660.798218,385.423065 660.864990,363.444153 
	C660.874390,360.333496 662.258057,357.226990 663.005676,354.118561 
	C663.841003,354.167053 664.676331,354.215576 665.511658,354.264069 
	C666.066101,356.984528 667.084717,359.701752 667.103821,362.425964 
	C667.314392,392.413116 667.423279,422.401367 667.444763,452.389374 
	C667.456238,468.368469 667.190857,484.347565 667.154785,500.326935 
	C667.137146,508.154205 667.357727,515.981995 667.470947,524.277344 
z"/>
<path fill="#256BA6" opacity="1.000000" stroke="none" 
	d="
M690.637573,529.530029 
	C691.725342,525.688538 693.911377,527.663635 695.392639,528.391479 
	C701.204041,531.247009 706.850586,534.441711 712.694153,537.225342 
	C713.979980,537.837830 716.350952,537.940002 717.324036,537.158569 
	C724.438904,531.445068 731.324646,525.446289 737.785950,519.959351 
	C726.451172,508.265320 715.379028,496.623260 704.036133,485.251251 
	C699.707703,480.911682 694.887573,477.027374 690.059265,473.231049 
	C684.384705,468.769440 684.254089,467.802979 690.288879,464.068359 
	C698.764954,458.822998 707.322876,453.710144 715.820801,448.499817 
	C718.432190,446.898651 720.514038,446.351349 723.024902,449.162201 
	C728.318970,455.089050 734.037109,460.636566 739.565552,466.354858 
	C741.676575,468.538422 741.384827,470.432312 738.665344,472.100922 
	C733.174255,466.846161 727.754822,461.511749 722.121948,456.413055 
	C721.166626,455.548279 718.920044,454.969666 717.905029,455.492218 
	C710.102173,459.509674 702.456177,463.831787 694.520508,468.191742 
	C695.407104,469.321747 695.916138,470.184174 696.620056,470.836243 
	C711.736084,484.838257 726.887512,498.802185 741.983826,512.825378 
	C743.302856,514.050598 744.421753,515.549316 745.399292,517.071472 
	C747.239014,519.936523 747.266663,521.964966 743.854675,524.376709 
	C734.902771,530.704224 726.482544,537.779663 717.651245,544.286865 
	C716.344604,545.249573 713.552795,545.523193 712.139099,544.787598 
	C705.509399,541.337769 699.067017,537.511780 692.699280,533.590332 
	C691.613892,532.921875 691.217407,531.134705 690.637573,529.530029 
z"/>
<path fill="#2469A4" opacity="1.000000" stroke="none" 
	d="
M598.031372,471.314270 
	C597.569946,471.295349 597.108582,471.276428 595.989319,471.089905 
	C591.571289,469.243256 587.811157,467.564209 584.050964,465.885162 
	C583.619568,465.582825 583.188110,465.280518 582.281982,464.675385 
	C580.576050,463.858978 579.344910,463.345367 578.113770,462.831757 
	C578.113770,462.831757 578.055481,462.929810 578.002441,462.677917 
	C577.633301,462.339142 577.317261,462.252319 577.001160,462.165466 
	C577.001160,462.165466 576.704346,461.898865 576.276733,461.620056 
	C573.978760,460.463348 572.108521,459.585480 570.238220,458.707642 
	C570.238220,458.707642 570.210754,458.712006 569.998291,458.454102 
	C568.092163,457.444519 566.398499,456.692780 564.467468,455.835693 
	C563.500183,458.123322 562.695923,460.025299 561.891724,461.927277 
	C561.891724,461.927277 561.982971,461.975220 561.738525,462.036255 
	C561.243469,462.348541 561.162109,462.646088 561.250000,462.989868 
	C561.250000,462.989868 560.981628,463.407806 560.707764,463.889832 
	C557.936768,469.910522 555.439697,475.449188 552.942627,480.987823 
	C550.237976,486.125641 547.315430,491.165771 544.945557,496.453644 
	C544.102295,498.335114 543.778259,501.213013 544.618469,502.963501 
	C550.929199,516.111877 557.590149,529.092041 564.452393,542.743286 
	C574.280945,536.976624 583.514709,531.558899 592.722595,526.156372 
	C595.902832,530.754822 596.094849,531.099487 592.032471,533.626343 
	C585.270142,537.832581 578.211975,541.561340 571.312988,545.551025 
	C568.515686,547.168640 565.809204,548.943176 562.710815,550.863586 
	C562.112976,549.926575 561.216248,548.756042 560.563904,547.462402 
	C553.683655,533.817505 546.620972,520.256287 540.156494,506.416168 
	C538.667542,503.228333 537.837280,498.440216 539.142700,495.455109 
	C546.181519,479.360016 553.988708,463.601044 561.758118,447.247620 
	C565.459229,449.064056 568.426025,450.429962 571.310242,451.952362 
	C580.402161,456.751495 589.462463,461.610199 598.536194,466.443665 
	C600.387634,467.429871 601.786926,468.489044 598.827393,470.619263 
	C598.296509,471.085724 598.163940,471.199982 598.031372,471.314270 
z"/>
<path fill="#1A65A3" opacity="1.000000" stroke="none" 
	d="
M624.725464,400.955200 
	C624.709839,403.675659 624.694214,406.396088 624.209229,409.712769 
	C623.496826,411.404022 623.042358,412.498871 623.041382,413.594116 
	C623.006775,451.420135 623.002075,489.246246 623.071838,527.072144 
	C623.074280,528.388245 623.882751,529.702881 624.315552,531.018188 
	C624.442871,532.396851 624.570068,533.775452 624.294189,535.625000 
	C623.264465,537.070923 622.637878,538.046021 622.011292,539.021118 
	C622.011292,539.021118 622.001770,538.997559 621.642700,538.996155 
	C620.205261,540.022278 619.126892,541.049805 618.048523,542.077332 
	C618.048523,542.077332 618.009155,542.002197 617.672791,542.008545 
	C616.317322,542.809265 615.298279,543.603699 614.279236,544.398132 
	C614.279236,544.398132 614.198242,544.293762 613.975220,544.293457 
	C613.498352,544.562378 613.244507,544.831543 612.990723,545.100769 
	C612.990723,545.100769 612.844727,545.274780 612.347412,545.199219 
	C610.949280,545.837830 610.048584,546.551941 609.147827,547.266113 
	C609.147827,547.266113 609.118408,547.146240 608.911499,547.189087 
	C608.469299,547.486816 608.234070,547.741577 607.998840,547.996399 
	C607.998840,547.996399 608.000000,548.000000 607.621826,547.994751 
	C604.229858,549.769226 601.216003,551.548950 598.202209,553.328613 
	C598.202209,553.328613 598.089539,553.178589 597.828857,553.162048 
	C597.119629,553.556763 596.671143,553.967957 596.222595,554.379211 
	C596.222595,554.379211 596.165833,554.246338 595.958801,554.255188 
	C595.505859,554.520203 595.259949,554.776367 595.013977,555.032471 
	C595.013977,555.032471 595.005676,554.995728 594.637695,554.996033 
	C592.603333,556.126099 590.936890,557.255859 589.270447,558.385620 
	C589.270447,558.385559 589.195435,558.277771 588.977051,558.283325 
	C588.522888,558.562012 588.287231,558.835205 588.051514,559.108337 
	C588.051514,559.108337 588.026978,559.017822 587.702515,559.022278 
	C586.583618,559.680725 585.789246,560.334656 584.994873,560.988586 
	C584.994873,560.988586 585.000000,561.000305 584.596802,560.989868 
	C580.492126,562.367615 576.790710,563.755859 572.678467,565.298218 
	C572.810913,563.633240 572.886414,562.683472 572.961975,561.733643 
	C572.961975,561.733643 573.139771,561.654297 573.620056,561.700378 
	C576.384521,560.140198 578.668762,558.533997 580.952942,556.927734 
	C580.952942,556.927734 580.991821,557.000122 581.336975,556.992676 
	C583.092773,555.946289 584.503357,554.907410 585.914001,553.868469 
	C585.914001,553.868469 585.968994,553.980042 586.300110,553.973450 
	C590.421265,551.421509 594.211243,548.876160 598.001282,546.330811 
	C603.989624,542.807495 610.062317,539.414612 615.893127,535.647400 
	C617.017334,534.921021 617.718140,532.733276 617.732422,531.211365 
	C618.263428,474.782745 618.690491,418.353149 619.566467,361.414124 
	C621.162109,360.151917 622.322876,359.399231 623.997559,358.313354 
	C623.997559,368.991150 623.997559,378.994354 623.996826,389.453186 
	C624.239258,393.590912 624.482361,397.273071 624.725464,400.955200 
z"/>
<path fill="#2169A4" opacity="1.000000" stroke="none" 
	d="
M709.492554,397.478180 
	C710.143799,398.681732 710.601318,399.569733 711.063354,400.455292 
	C716.070496,410.052277 717.181396,408.989777 707.229614,416.077454 
	C700.594299,420.803131 693.906494,425.458496 687.147400,430.004425 
	C685.563599,431.069641 683.596497,431.564911 681.752625,432.344788 
	C680.044373,426.392883 680.907898,424.978699 686.874817,421.486511 
	C694.155029,417.225647 701.290527,412.717499 708.752441,408.154968 
	C692.128540,378.376526 675.711243,348.968231 659.339722,319.641937 
	C663.110107,315.997620 665.343384,316.478790 667.502441,320.467346 
	C681.362244,346.071594 695.353149,371.604889 709.492554,397.478180 
z"/>
<path fill="#2469A4" opacity="1.000000" stroke="none" 
	d="
M589.400391,388.476257 
	C585.349548,396.139130 581.476685,403.475647 577.541565,410.930023 
	C587.390808,417.237610 597.216980,423.530396 607.226685,429.940735 
	C604.539307,434.469055 601.968262,432.849976 599.599121,431.510895 
	C589.903198,426.030487 580.250916,420.472870 569.819214,414.507111 
	C572.153076,409.668701 574.418579,404.619446 576.978149,399.723938 
	C590.981689,372.940979 605.026794,346.179443 619.221191,319.497559 
	C619.783997,318.439728 622.003723,318.263397 623.451538,317.676331 
	C623.556091,319.540314 624.392578,321.787964 623.648621,323.207153 
	C618.011841,333.960632 611.916260,344.473206 606.257263,355.215485 
	C600.522644,366.101410 595.124023,377.164429 589.400391,388.476257 
z"/>
<path fill="#256BA6" opacity="1.000000" stroke="none" 
	d="
M602.507812,575.425537 
	C608.081543,571.036987 613.311096,566.724304 618.876282,562.900024 
	C625.442017,558.388245 632.221252,554.168823 639.083557,550.120300 
	C640.745422,549.139832 643.456726,548.450317 645.074646,549.114624 
	C660.421448,555.416199 673.103821,565.981323 686.726807,574.809021 
	C685.412354,579.431702 683.308289,580.025574 679.974915,577.835388 
	C670.410522,571.550720 660.691711,565.497070 651.213379,559.086670 
	C643.699829,554.005127 643.789246,553.789062 636.147644,558.971863 
	C625.997070,565.856323 615.896423,572.814270 605.221497,580.118958 
	C604.130493,578.468323 603.221375,577.092957 602.507812,575.425537 
z"/>
<path fill="#2A6CA4" opacity="1.000000" stroke="none" 
	d="
M624.227356,261.947266 
	C629.110962,259.529663 627.838806,255.973297 627.104004,251.983322 
	C623.175232,230.648529 615.308289,210.883377 604.409668,192.203217 
	C603.089905,189.941162 602.967102,186.980759 602.289551,184.344009 
	C602.794128,184.107880 603.298706,183.871750 603.803284,183.635605 
	C606.637268,188.112839 609.621460,192.502945 612.279053,197.082550 
	C623.055481,215.652817 630.404114,235.487610 633.920166,256.702881 
	C634.028992,257.359406 634.017944,258.045807 634.201233,258.678131 
	C634.918640,261.153687 635.691772,263.613098 636.444214,266.078491 
	C633.627808,266.872162 630.811401,267.665863 628.151672,268.415375 
	C626.642822,266.073090 625.437378,264.201843 624.227356,261.947266 
z"/>
<path fill="#2A6CA4" opacity="1.000000" stroke="none" 
	d="
M662.476807,212.499634 
	C667.292358,203.074646 671.931458,193.994217 676.570557,184.913788 
	C677.357178,185.179871 678.143799,185.445953 678.930359,185.712051 
	C678.515503,188.093399 678.752747,190.871536 677.583191,192.793701 
	C667.703979,209.030075 661.944824,226.856689 657.315491,245.071609 
	C656.036987,250.102081 654.363831,255.494614 657.756348,260.765442 
	C658.647583,262.150146 657.890747,264.595581 657.890747,266.852722 
	C654.482849,266.852722 651.241821,266.852722 647.560303,266.852722 
	C648.566406,264.006592 645.701416,260.277954 650.468750,258.843353 
	C650.908020,258.711151 651.160645,257.427460 651.223938,256.655792 
	C652.472534,241.431381 657.159973,227.081375 662.476807,212.499634 
z"/>
<path fill="#2A6CA4" opacity="1.000000" stroke="none" 
	d="
M624.452515,530.567810 
	C623.882751,529.702881 623.074280,528.388245 623.071838,527.072144 
	C623.002075,489.246246 623.006775,451.420135 623.041382,413.594116 
	C623.042358,412.498871 623.496826,411.404022 624.074951,410.144592 
	C624.399353,421.435638 624.361450,432.891083 624.383179,444.346436 
	C624.437561,472.936798 624.518982,501.527100 624.452515,530.567810 
z"/>
<path fill="#266798" opacity="1.000000" stroke="none" 
	d="
M623.997559,388.997559 
	C623.997559,378.994354 623.997559,368.991150 623.997559,358.313354 
	C622.322876,359.399231 621.162109,360.151917 619.683044,360.959961 
	C620.544434,359.199036 621.724060,357.382751 622.903687,355.566498 
	C623.530762,355.693695 624.157837,355.820923 624.784973,355.948120 
	C625.855347,366.610657 625.113403,377.355316 624.708618,388.534119 
	C624.417847,388.996674 623.997559,388.997559 623.997559,388.997559 
z"/>
<path fill="#2A6CA4" opacity="1.000000" stroke="none" 
	d="
M572.607178,561.743347 
	C572.886414,562.683472 572.810913,563.633240 572.678467,565.298218 
	C576.790710,563.755859 580.492126,562.367615 584.589905,560.986328 
	C580.618225,563.446594 576.250244,565.899841 571.887146,568.350281 
	C568.771545,565.631042 568.784302,563.536316 572.607178,561.743347 
z"/>
<path fill="#E2F8FC" opacity="1.000000" stroke="none" 
	d="
M553.295532,480.940765 
	C555.439697,475.449188 557.936768,469.910522 560.699097,464.138062 
	C561.446838,470.825256 557.507874,475.842346 553.295532,480.940765 
z"/>
<path fill="#2A6CA4" opacity="1.000000" stroke="none" 
	d="
M597.665649,546.399902 
	C594.211243,548.876160 590.421265,551.421509 586.253296,553.932495 
	C589.693604,551.421753 593.511841,548.945374 597.665649,546.399902 
z"/>
<path fill="#E2F8FC" opacity="1.000000" stroke="none" 
	d="
M584.043762,466.274261 
	C587.811157,467.564209 591.571289,469.243256 595.643677,471.112335 
	C591.009705,472.256348 587.360107,469.878693 584.043762,466.274261 
z"/>
<path fill="#E2F8FC" opacity="1.000000" stroke="none" 
	d="
M562.249756,461.945923 
	C562.695923,460.025299 563.500183,458.123322 564.467468,455.835693 
	C566.398499,456.692780 568.092163,457.444519 569.999878,458.467651 
	C567.678528,459.814270 565.143127,460.889435 562.249756,461.945923 
z"/>
<path fill="#2A6CA4" opacity="1.000000" stroke="none" 
	d="
M598.562378,553.280823 
	C601.216003,551.548950 604.229858,549.769226 607.619568,547.993774 
	C604.971191,549.743042 601.946899,551.488037 598.562378,553.280823 
z"/>
<path fill="#2A6CA4" opacity="1.000000" stroke="none" 
	d="
M580.606567,556.985474 
	C578.668762,558.533997 576.384521,560.140198 573.696777,561.760254 
	C575.615540,560.197083 577.937866,558.620117 580.606567,556.985474 
z"/>
<path fill="#2A6CA4" opacity="1.000000" stroke="none" 
	d="
M623.996826,389.453186 
	C623.997559,388.997559 624.417847,388.996674 624.628052,388.995331 
	C624.868042,392.682465 624.897888,396.370941 624.826599,400.507324 
	C624.482361,397.273071 624.239258,393.590912 623.996826,389.453186 
z"/>
<path fill="#2A6CA4" opacity="1.000000" stroke="none" 
	d="
M589.609253,558.329468 
	C590.936890,557.255859 592.603333,556.126099 594.651611,555.009155 
	C593.338379,556.105713 591.643188,557.189514 589.609253,558.329468 
z"/>
<path fill="#E2F8FC" opacity="1.000000" stroke="none" 
	d="
M570.206421,459.095367 
	C572.108521,459.585480 573.978760,460.463348 576.077637,461.607300 
	C574.262329,461.076630 572.218445,460.279846 570.206421,459.095367 
z"/>
<path fill="#2A6CA4" opacity="1.000000" stroke="none" 
	d="
M585.580627,553.912231 
	C584.503357,554.907410 583.092773,555.946289 581.305542,556.966187 
	C582.368469,555.950073 583.807861,554.953003 585.580627,553.912231 
z"/>
<path fill="#2A6CA4" opacity="1.000000" stroke="none" 
	d="
M618.369019,542.026428 
	C619.126892,541.049805 620.205261,540.022278 621.653076,539.004456 
	C620.911499,540.001282 619.800537,540.988403 618.369019,542.026428 
z"/>
<path fill="#2A6CA4" opacity="1.000000" stroke="none" 
	d="
M622.382019,539.012878 
	C622.637878,538.046021 623.264465,537.070923 624.193115,536.033203 
	C623.914307,536.981995 623.333557,537.993286 622.382019,539.012878 
z"/>
<path fill="#2A6CA4" opacity="1.000000" stroke="none" 
	d="
M614.601807,544.339478 
	C615.298279,543.603699 616.317322,542.809265 617.706055,542.034912 
	C617.025208,542.796936 615.974792,543.538940 614.601807,544.339478 
z"/>
<path fill="#E2F8FC" opacity="1.000000" stroke="none" 
	d="
M578.135620,463.218628 
	C579.344910,463.345367 580.576050,463.858978 582.014099,464.639832 
	C580.866455,464.473175 579.511963,464.039307 578.135620,463.218628 
z"/>
<path fill="#2A6CA4" opacity="1.000000" stroke="none" 
	d="
M609.488281,547.219849 
	C610.048584,546.551941 610.949280,545.837830 612.235474,545.179810 
	C611.690186,545.881836 610.759521,546.527710 609.488281,547.219849 
z"/>
<path fill="#2A6CA4" opacity="1.000000" stroke="none" 
	d="
M585.309937,560.954956 
	C585.789246,560.334656 586.583618,559.680725 587.739014,559.051697 
	C587.274963,559.691528 586.449951,560.306458 585.309937,560.954956 
z"/>
<path fill="#2A6CA4" opacity="1.000000" stroke="none" 
	d="
M596.524780,554.350586 
	C596.671143,553.967957 597.119629,553.556763 597.909241,553.210449 
	C597.775879,553.624207 597.301392,553.973083 596.524780,554.350586 
z"/>
<path fill="#2A6CA4" opacity="1.000000" stroke="none" 
	d="
M588.321777,559.076416 
	C588.287231,558.835205 588.522888,558.562012 589.041870,558.293640 
	C589.080750,558.547058 588.836426,558.795776 588.321777,559.076416 
z"/>
<path fill="#2A6CA4" opacity="1.000000" stroke="none" 
	d="
M595.284546,555.014099 
	C595.259949,554.776367 595.505859,554.520203 596.029175,554.271301 
	C596.056152,554.517639 595.805664,554.756714 595.284546,555.014099 
z"/>
<path fill="#2A6CA4" opacity="1.000000" stroke="none" 
	d="
M608.270874,547.978577 
	C608.234070,547.741577 608.469299,547.486816 608.971436,547.203735 
	C609.006531,547.437256 608.774719,547.699036 608.270874,547.978577 
z"/>
<path fill="#2A6CA4" opacity="1.000000" stroke="none" 
	d="
M613.273804,545.088257 
	C613.244507,544.831543 613.498352,544.562378 614.040894,544.300781 
	C614.071960,544.564209 613.814453,544.820007 613.273804,545.088257 
z"/>
<path fill="#E2F8FC" opacity="1.000000" stroke="none" 
	d="
M598.175171,471.432739 
	C598.163940,471.199982 598.296509,471.085724 598.682617,470.904053 
	C598.730530,471.074829 598.524780,471.313049 598.175171,471.432739 
z"/>
<path fill="#E2F8FC" opacity="1.000000" stroke="none" 
	d="
M577.134155,462.369202 
	C577.317261,462.252319 577.633301,462.339142 578.055542,462.656982 
	C577.813904,462.923553 577.515686,462.818542 577.134155,462.369202 
z"/>
<path fill="#E2F8FC" opacity="1.000000" stroke="none" 
	d="
M561.438110,462.859985 
	C561.162109,462.646088 561.243469,462.348541 561.710815,461.992859 
	C561.949829,462.212921 561.849365,462.493500 561.438110,462.859985 
z"/>
</svg>